# WaveFront *.obj file (generated by Autodesk ATF)

mtllib BOWMOUNT v15_BOWMOUNT v15_capacitor.mtl

g capacitor

v 4.263588 13.809205 6.000000
v 4.263588 13.795176 6.334711
v 4.263588 13.753189 6.667075
v 4.263588 13.683538 6.994760
v 4.263588 13.586710 7.315467
v 4.263588 13.463387 7.626947
v 4.263588 13.314432 7.927015
v 4.263588 13.140890 8.213566
v 4.263588 12.943979 8.484591
v 4.263588 12.725080 8.738188
v 4.263588 12.485727 8.972579
v 4.263588 12.227601 9.186120
v 4.263588 11.952512 9.377312
v 4.263588 11.662389 9.544814
v 4.263588 11.359267 9.687453
v 4.263588 11.045273 9.804226
v 4.263588 10.722608 9.894316
v 4.263588 10.393537 9.957089
v 4.263588 10.060367 9.992107
v 4.263588 9.725435 9.999123
v 4.263588 9.391091 9.978088
v 4.263588 9.059680 9.929149
v 4.263588 8.733526 9.852650
v 4.263588 8.414917 9.749128
v 4.263588 8.106088 9.619308
v 4.263588 7.809205 9.464102
v 4.263588 7.526351 9.284597
v 4.263588 7.259509 9.082053
v 4.263588 7.010552 8.857891
v 4.263588 6.781225 8.613682
v 4.263588 6.573137 8.351141
v 4.263588 6.387748 8.072108
v 4.263588 6.226358 7.778541
v 4.263588 6.090099 7.472498
v 4.263588 5.979927 7.156127
v 4.263588 5.896615 6.831647
v 4.263588 5.840746 6.501333
v 4.263588 5.812714 6.167503
v 4.263588 5.812714 5.832497
v 4.263588 5.840746 5.498667
v 4.263588 5.896615 5.168353
v 4.263588 5.979927 4.843873
v 4.263588 6.090099 4.527502
v 4.263588 6.226358 4.221459
v 4.263588 6.387748 3.927892
v 4.263588 6.573137 3.648859
v 4.263588 6.781225 3.386318
v 4.263588 7.010552 3.142109
v 4.263588 7.259509 2.917947
v 4.263588 7.526351 2.715403
v 4.263588 7.809205 2.535898
v 4.263588 8.106088 2.380692
v 4.263588 8.414917 2.250872
v 4.263588 8.733526 2.147350
v 4.263588 9.059680 2.070851
v 4.263588 9.391091 2.021912
v 4.263588 9.725435 2.000877
v 4.263588 10.060367 2.007893
v 4.263588 10.393537 2.042911
v 4.263588 10.722608 2.105684
v 4.263588 11.045273 2.195774
v 4.263588 11.359267 2.312547
v 4.263588 11.662389 2.455186
v 4.263588 11.952512 2.622688
v 4.263588 12.227601 2.813880
v 4.263588 12.485727 3.027421
v 4.263588 12.725080 3.261812
v 4.263588 12.943979 3.515409
v 4.263588 13.140890 3.786434
v 4.263588 13.314432 4.072985
v 4.263588 13.463387 4.373053
v 4.263588 13.586710 4.684533
v 4.263588 13.683538 5.005240
v 4.263588 13.753189 5.332925
v 4.263588 13.795176 5.665289
v 15.763588 13.809205 6.000000
v 15.763588 13.795176 5.665289
v 15.763588 13.753189 5.332925
v 15.763588 13.683538 5.005240
v 15.763588 13.586710 4.684533
v 15.763588 13.463387 4.373053
v 15.763588 13.314432 4.072985
v 15.763588 13.140890 3.786434
v 15.763588 12.943979 3.515409
v 15.763588 12.725080 3.261812
v 15.763588 12.485727 3.027421
v 15.763588 12.227601 2.813880
v 15.763588 11.952512 2.622688
v 15.763588 11.662389 2.455186
v 15.763588 11.359267 2.312547
v 15.763588 11.045273 2.195774
v 15.763588 10.722608 2.105684
v 15.763588 10.393537 2.042911
v 15.763588 10.060367 2.007893
v 15.763588 9.725435 2.000877
v 15.763588 9.391091 2.021912
v 15.763588 9.059680 2.070851
v 15.763588 8.733526 2.147350
v 15.763588 8.414917 2.250872
v 15.763588 8.106088 2.380692
v 15.763588 7.809205 2.535898
v 15.763588 7.526351 2.715403
v 15.763588 7.259509 2.917947
v 15.763588 7.010552 3.142109
v 15.763588 6.781225 3.386318
v 15.763588 6.573137 3.648859
v 15.763588 6.387748 3.927892
v 15.763588 6.226358 4.221459
v 15.763588 6.090099 4.527502
v 15.763588 5.979927 4.843873
v 15.763588 5.896615 5.168353
v 15.763588 5.840746 5.498667
v 15.763588 5.812714 5.832497
v 15.763588 5.812714 6.167503
v 15.763588 5.840746 6.501333
v 15.763588 5.896615 6.831647
v 15.763588 5.979927 7.156127
v 15.763588 6.090099 7.472498
v 15.763588 6.226358 7.778541
v 15.763588 6.387748 8.072108
v 15.763588 6.573137 8.351141
v 15.763588 6.781225 8.613682
v 15.763588 7.010552 8.857891
v 15.763588 7.259509 9.082053
v 15.763588 7.526351 9.284597
v 15.763588 7.809205 9.464102
v 15.763588 8.106088 9.619308
v 15.763588 8.414917 9.749128
v 15.763588 8.733526 9.852650
v 15.763588 9.059680 9.929149
v 15.763588 9.391091 9.978088
v 15.763588 9.725435 9.999123
v 15.763588 10.060367 9.992107
v 15.763588 10.393537 9.957089
v 15.763588 10.722608 9.894316
v 15.763588 11.045273 9.804226
v 15.763588 11.359267 9.687453
v 15.763588 11.662389 9.544814
v 15.763588 11.952512 9.377312
v 15.763588 12.227601 9.186120
v 15.763588 12.485727 8.972579
v 15.763588 12.725080 8.738188
v 15.763588 12.943979 8.484591
v 15.763588 13.140890 8.213566
v 15.763588 13.314432 7.927015
v 15.763588 13.463387 7.626947
v 15.763588 13.586710 7.315467
v 15.763588 13.683538 6.994760
v 15.763588 13.753189 6.667075
v 15.763588 13.795176 6.334711
v 10.013588 13.809205 6.000000
v 10.013588 13.794795 6.339224
v 10.013588 13.751669 6.676003
v 10.013588 13.680137 7.007912
v 10.013588 13.580715 7.332559
v 10.013588 13.454119 7.647605
v 10.013588 13.301261 7.950780
v 10.013588 13.123244 8.239899
v 10.013588 12.921348 8.512880
v 10.013588 12.697029 8.767755
v 10.013588 12.451904 9.002689
v 10.013588 12.187738 9.215989
v 10.013588 11.906434 9.406117
v 10.013588 11.610020 9.571703
v 10.013588 11.300631 9.711556
v 10.013588 10.980496 9.824667
v 10.013588 10.651922 9.910221
v 10.013588 10.317276 9.967602
v 10.013588 9.978970 9.996396
v 10.013588 9.639440 9.996396
v 10.013588 9.301134 9.967602
v 10.013588 8.966488 9.910221
v 10.013588 8.637914 9.824667
v 10.013588 8.317779 9.711556
v 10.013588 8.008390 9.571703
v 10.013588 7.711976 9.406117
v 10.013588 7.430672 9.215989
v 10.013588 7.166506 9.002689
v 10.013588 6.921381 8.767755
v 10.013588 6.697062 8.512880
v 10.013588 6.495166 8.239899
v 10.013588 6.317149 7.950780
v 10.013588 6.164291 7.647605
v 10.013588 6.037695 7.332559
v 10.013588 5.938273 7.007912
v 10.013588 5.866741 6.676003
v 10.013588 5.823615 6.339224
v 10.013588 5.809205 6.000000
v 10.013588 5.823615 5.660776
v 10.013588 5.866741 5.323997
v 10.013588 5.938273 4.992088
v 10.013588 6.037695 4.667441
v 10.013588 6.164291 4.352395
v 10.013588 6.317149 4.049220
v 10.013588 6.495166 3.760101
v 10.013588 6.697062 3.487120
v 10.013588 6.921381 3.232245
v 10.013588 7.166506 2.997311
v 10.013588 7.430672 2.784011
v 10.013588 7.711976 2.593883
v 10.013588 8.008390 2.428297
v 10.013588 8.317779 2.288444
v 10.013588 8.637914 2.175333
v 10.013588 8.966488 2.089779
v 10.013588 9.301134 2.032398
v 10.013588 9.639440 2.003604
v 10.013588 9.978970 2.003604
v 10.013588 10.317276 2.032398
v 10.013588 10.651922 2.089779
v 10.013588 10.980496 2.175333
v 10.013588 11.300631 2.288444
v 10.013588 11.610020 2.428297
v 10.013588 11.906434 2.593883
v 10.013588 12.187738 2.784011
v 10.013588 12.451904 2.997311
v 10.013588 12.697029 3.232245
v 10.013588 12.921348 3.487120
v 10.013588 13.123244 3.760101
v 10.013588 13.301261 4.049220
v 10.013588 13.454119 4.352395
v 10.013588 13.580715 4.667441
v 10.013588 13.680137 4.992088
v 10.013588 13.751669 5.323997
v 10.013588 13.794795 5.660776
vt -1.150000 -1.223127 0.000000
vt -1.150000 -1.256637 0.000000
vt -0.575000 -1.256637 0.000000
vt -0.575000 1.256637 0.000000
vt -1.150000 1.256637 0.000000
vt -1.150000 1.223127 0.000000
vt -0.575000 1.222674 0.000000
vt -1.150000 1.189616 0.000000
vt -0.575000 1.188711 0.000000
vt -1.150000 1.156106 0.000000
vt -0.575000 1.154748 0.000000
vt -1.150000 1.122596 0.000000
vt -0.575000 1.120784 0.000000
vt -1.150000 1.089085 0.000000
vt -0.575000 1.086821 0.000000
vt -1.150000 1.055575 0.000000
vt -0.575000 1.052858 0.000000
vt -1.150000 1.022065 0.000000
vt -0.575000 1.018895 0.000000
vt -1.150000 0.988554 0.000000
vt -0.575000 0.984932 0.000000
vt -1.150000 0.955044 0.000000
vt -0.575000 0.950969 0.000000
vt -1.150000 0.921534 0.000000
vt -0.575000 0.917005 0.000000
vt -1.150000 0.888024 0.000000
vt -0.575000 0.883042 0.000000
vt -1.150000 0.854513 0.000000
vt -0.575000 0.849079 0.000000
vt -1.150000 0.821003 0.000000
vt -0.575000 0.815116 0.000000
vt -1.150000 0.787493 0.000000
vt -0.575000 0.781153 0.000000
vt -1.150000 0.753982 0.000000
vt -0.575000 0.747190 0.000000
vt -1.150000 0.720472 0.000000
vt -0.575000 0.713226 0.000000
vt -1.150000 0.686962 0.000000
vt -0.575000 0.679263 0.000000
vt -1.150000 0.653451 0.000000
vt -0.575000 0.645300 0.000000
vt -1.150000 0.619941 0.000000
vt -0.575000 0.611337 0.000000
vt -1.150000 0.586431 0.000000
vt -0.575000 0.577374 0.000000
vt -1.150000 0.552920 0.000000
vt -0.575000 0.543411 0.000000
vt -1.150000 0.519410 0.000000
vt -0.575000 0.509447 0.000000
vt -1.150000 0.485900 0.000000
vt -0.575000 0.475484 0.000000
vt -1.150000 0.452389 0.000000
vt -0.575000 0.441521 0.000000
vt -1.150000 0.418879 0.000000
vt -0.575000 0.407558 0.000000
vt -1.150000 0.385369 0.000000
vt -0.575000 0.373595 0.000000
vt -1.150000 0.351858 0.000000
vt -0.575000 0.339632 0.000000
vt -1.150000 0.318348 0.000000
vt -0.575000 0.305668 0.000000
vt -1.150000 0.284838 0.000000
vt -0.575000 0.271705 0.000000
vt -1.150000 0.251327 0.000000
vt -0.575000 0.237742 0.000000
vt -1.150000 0.217817 0.000000
vt -0.575000 0.203779 0.000000
vt -1.150000 0.184307 0.000000
vt -0.575000 0.169816 0.000000
vt -1.150000 0.150796 0.000000
vt -0.575000 0.135853 0.000000
vt -1.150000 0.117286 0.000000
vt -0.575000 0.101889 0.000000
vt -1.150000 0.083776 0.000000
vt -0.575000 0.067926 0.000000
vt -1.150000 0.050265 0.000000
vt -0.575000 0.033963 0.000000
vt -1.150000 0.016755 0.000000
vt -0.575000 0.000000 0.000000
vt -1.150000 -0.016755 0.000000
vt -0.575000 -0.033963 0.000000
vt -1.150000 -0.050265 0.000000
vt -0.575000 -0.067926 0.000000
vt -1.150000 -0.083776 0.000000
vt -0.575000 -0.101889 0.000000
vt -1.150000 -0.117286 0.000000
vt -0.575000 -0.135853 0.000000
vt -1.150000 -0.150796 0.000000
vt -0.575000 -0.169816 0.000000
vt -1.150000 -0.184307 0.000000
vt -0.575000 -0.203779 0.000000
vt -1.150000 -0.217817 0.000000
vt -0.575000 -0.237742 0.000000
vt -1.150000 -0.251327 0.000000
vt -0.575000 -0.271705 0.000000
vt -1.150000 -0.284838 0.000000
vt -0.575000 -0.305668 0.000000
vt -1.150000 -0.318348 0.000000
vt -0.575000 -0.339632 0.000000
vt -1.150000 -0.351858 0.000000
vt -0.575000 -0.373595 0.000000
vt -1.150000 -0.385369 0.000000
vt -0.575000 -0.407558 0.000000
vt -1.150000 -0.418879 0.000000
vt -0.575000 -0.441521 0.000000
vt -1.150000 -0.452389 0.000000
vt -0.575000 -0.475484 0.000000
vt -1.150000 -0.485900 0.000000
vt -0.575000 -0.509447 0.000000
vt -1.150000 -0.519410 0.000000
vt -0.575000 -0.543411 0.000000
vt -1.150000 -0.552920 0.000000
vt -0.575000 -0.577374 0.000000
vt -1.150000 -0.586431 0.000000
vt -0.575000 -0.611337 0.000000
vt -1.150000 -0.619941 0.000000
vt -0.575000 -0.645300 0.000000
vt -1.150000 -0.653451 0.000000
vt -0.575000 -0.679263 0.000000
vt -1.150000 -0.686962 0.000000
vt -0.575000 -0.713226 0.000000
vt -1.150000 -0.720472 0.000000
vt -0.575000 -0.747190 0.000000
vt -1.150000 -0.753982 0.000000
vt -0.575000 -0.781153 0.000000
vt -1.150000 -0.787493 0.000000
vt -0.575000 -0.815116 0.000000
vt -1.150000 -0.821003 0.000000
vt -0.575000 -0.849079 0.000000
vt -1.150000 -0.854513 0.000000
vt -0.575000 -0.883042 0.000000
vt -1.150000 -0.888024 0.000000
vt -0.575000 -0.917005 0.000000
vt -1.150000 -0.921534 0.000000
vt -0.575000 -0.950969 0.000000
vt -1.150000 -0.955044 0.000000
vt -0.575000 -0.984932 0.000000
vt -1.150000 -0.988554 0.000000
vt -0.575000 -1.018895 0.000000
vt -1.150000 -1.022065 0.000000
vt -0.575000 -1.052858 0.000000
vt -1.150000 -1.055575 0.000000
vt -0.575000 -1.086821 0.000000
vt -1.150000 -1.089085 0.000000
vt -0.575000 -1.120784 0.000000
vt -1.150000 -1.122596 0.000000
vt -0.575000 -1.154748 0.000000
vt -1.150000 -1.156106 0.000000
vt -0.575000 -1.188711 0.000000
vt -1.150000 -1.189616 0.000000
vt -0.575000 -1.222674 0.000000
vt -0.000000 1.223127 0.000000
vt -0.000000 1.256637 0.000000
vt -0.000000 -1.256637 0.000000
vt -0.000000 -1.223127 0.000000
vt -0.000000 -1.189616 0.000000
vt -0.000000 -1.156106 0.000000
vt -0.000000 -1.122596 0.000000
vt -0.000000 -1.089085 0.000000
vt -0.000000 -1.055575 0.000000
vt -0.000000 -1.022065 0.000000
vt 0.000000 -0.988554 0.000000
vt 0.000000 -0.955044 0.000000
vt 0.000000 -0.921534 0.000000
vt 0.000000 -0.888024 0.000000
vt 0.000000 -0.854513 0.000000
vt 0.000000 -0.821003 0.000000
vt 0.000000 -0.787493 0.000000
vt 0.000000 -0.753982 0.000000
vt 0.000000 -0.720472 0.000000
vt 0.000000 -0.686962 0.000000
vt 0.000000 -0.653451 0.000000
vt 0.000000 -0.619941 0.000000
vt 0.000000 -0.586431 0.000000
vt 0.000000 -0.552920 0.000000
vt 0.000000 -0.519410 0.000000
vt 0.000000 -0.485900 0.000000
vt 0.000000 -0.452389 0.000000
vt 0.000000 -0.418879 0.000000
vt -0.000000 -0.385369 0.000000
vt -0.000000 -0.351858 0.000000
vt -0.000000 -0.318348 0.000000
vt -0.000000 -0.284838 0.000000
vt 0.000000 -0.251327 0.000000
vt 0.000000 -0.217817 0.000000
vt 0.000000 -0.184307 0.000000
vt 0.000000 -0.150796 0.000000
vt 0.000000 -0.117286 0.000000
vt 0.000000 -0.083776 0.000000
vt 0.000000 -0.050265 0.000000
vt 0.000000 -0.016755 0.000000
vt 0.000000 0.016755 0.000000
vt 0.000000 0.050265 0.000000
vt 0.000000 0.083776 0.000000
vt 0.000000 0.117286 0.000000
vt 0.000000 0.150796 0.000000
vt 0.000000 0.184307 0.000000
vt 0.000000 0.217817 0.000000
vt 0.000000 0.251327 0.000000
vt -0.000000 0.284838 0.000000
vt -0.000000 0.318348 0.000000
vt -0.000000 0.351858 0.000000
vt -0.000000 0.385369 0.000000
vt -0.000000 0.418879 0.000000
vt -0.000000 0.452389 0.000000
vt -0.000000 0.485900 0.000000
vt -0.000000 0.519410 0.000000
vt -0.000000 0.552920 0.000000
vt -0.000000 0.586431 0.000000
vt -0.000000 0.619941 0.000000
vt -0.000000 0.653451 0.000000
vt -0.000000 0.686962 0.000000
vt -0.000000 0.720472 0.000000
vt -0.000000 0.753982 0.000000
vt -0.000000 0.787493 0.000000
vt -0.000000 0.821003 0.000000
vt -0.000000 0.854513 0.000000
vt 0.000000 0.888024 0.000000
vt 0.000000 0.921534 0.000000
vt 0.000000 0.955044 0.000000
vt 0.000000 0.988554 0.000000
vt -0.000000 1.022065 0.000000
vt -0.000000 1.055575 0.000000
vt -0.000000 1.089085 0.000000
vt -0.000000 1.122596 0.000000
vt -0.000000 1.156106 0.000000
vt -0.000000 1.189616 0.000000
vt -0.398597 -0.033471 0.000000
vt 0.399649 -0.016750 0.000000
vt -0.400000 -0.000000 0.000000
vt 0.399649 0.016750 0.000000
vt -0.398597 0.033471 0.000000
vt 0.396846 0.050133 0.000000
vt 0.391259 0.083165 0.000000
vt 0.396846 -0.050133 0.000000
vt -0.394398 -0.066707 0.000000
vt 0.391259 -0.083165 0.000000
vt -0.387433 -0.099476 0.000000
vt 0.382928 -0.115613 0.000000
vt -0.377751 -0.131547 0.000000
vt 0.371911 -0.147250 0.000000
vt -0.365418 -0.162695 0.000000
vt 0.358285 -0.177854 0.000000
vt -0.350523 -0.192701 0.000000
vt 0.342146 -0.207211 0.000000
vt -0.333168 -0.221357 0.000000
vt 0.323607 -0.235114 0.000000
vt -0.313477 -0.248459 0.000000
vt 0.302798 -0.261368 0.000000
vt -0.291587 -0.273819 0.000000
vt 0.279865 -0.285789 0.000000
vt -0.267652 -0.297258 0.000000
vt 0.254970 -0.308205 0.000000
vt -0.241840 -0.318612 0.000000
vt 0.228285 -0.328460 0.000000
vt -0.214331 -0.337731 0.000000
vt 0.200000 -0.346410 0.000000
vt -0.185318 -0.354481 0.000000
vt 0.170312 -0.361931 0.000000
vt -0.155006 -0.368745 0.000000
vt 0.139429 -0.374913 0.000000
vt -0.123607 -0.380423 0.000000
vt 0.107568 -0.385265 0.000000
vt -0.091340 -0.389432 0.000000
vt 0.074953 -0.392915 0.000000
vt -0.058433 -0.395709 0.000000
vt 0.041811 -0.397809 0.000000
vt -0.025116 -0.399211 0.000000
vt 0.008377 -0.399912 0.000000
vt 0.382928 0.115613 0.000000
vt 0.371911 0.147250 0.000000
vt 0.358285 0.177854 0.000000
vt 0.342146 0.207211 0.000000
vt 0.323607 0.235114 0.000000
vt 0.302798 0.261368 0.000000
vt 0.279865 0.285789 0.000000
vt 0.254970 0.308205 0.000000
vt 0.228285 0.328460 0.000000
vt 0.200000 0.346410 0.000000
vt 0.170312 0.361931 0.000000
vt 0.139429 0.374913 0.000000
vt 0.107568 0.385265 0.000000
vt 0.074953 0.392915 0.000000
vt 0.041811 0.397809 0.000000
vt 0.008377 0.399912 0.000000
vt -0.025116 0.399211 0.000000
vt -0.058433 0.395709 0.000000
vt -0.091340 0.389432 0.000000
vt -0.123607 0.380423 0.000000
vt -0.155006 0.368745 0.000000
vt -0.185318 0.354481 0.000000
vt -0.214331 0.337731 0.000000
vt -0.241840 0.318612 0.000000
vt -0.267652 0.297258 0.000000
vt -0.291587 0.273819 0.000000
vt -0.313477 0.248459 0.000000
vt -0.333168 0.221357 0.000000
vt -0.350523 0.192701 0.000000
vt -0.365418 0.162695 0.000000
vt -0.377751 0.131547 0.000000
vt -0.387433 0.099476 0.000000
vt -0.394398 0.066707 0.000000
vt 0.398597 0.033471 0.000000
vt -0.399649 0.016750 0.000000
vt 0.400000 -0.000000 0.000000
vt -0.399649 -0.016750 0.000000
vt 0.398597 -0.033471 0.000000
vt -0.396846 -0.050133 0.000000
vt 0.394398 -0.066707 0.000000
vt -0.391259 -0.083165 0.000000
vt 0.387433 -0.099476 0.000000
vt -0.382928 -0.115613 0.000000
vt 0.377751 -0.131547 0.000000
vt -0.371911 -0.147250 0.000000
vt 0.365418 -0.162695 0.000000
vt -0.358285 -0.177854 0.000000
vt 0.350523 -0.192701 0.000000
vt -0.342146 -0.207211 0.000000
vt 0.333168 -0.221357 0.000000
vt -0.323607 -0.235114 0.000000
vt 0.313477 -0.248459 0.000000
vt -0.302798 -0.261368 0.000000
vt 0.291587 -0.273819 0.000000
vt -0.279865 -0.285789 0.000000
vt 0.267652 -0.297258 0.000000
vt -0.254970 -0.308205 0.000000
vt 0.241840 -0.318612 0.000000
vt -0.228285 -0.328460 0.000000
vt 0.214331 -0.337731 0.000000
vt -0.200000 -0.346410 0.000000
vt 0.185318 -0.354481 0.000000
vt -0.170312 -0.361931 0.000000
vt 0.155006 -0.368745 0.000000
vt -0.139429 -0.374913 0.000000
vt 0.123607 -0.380423 0.000000
vt -0.107568 -0.385265 0.000000
vt 0.091340 -0.389432 0.000000
vt -0.074953 -0.392915 0.000000
vt 0.058433 -0.395709 0.000000
vt -0.041811 -0.397809 0.000000
vt 0.025116 -0.399211 0.000000
vt -0.008377 -0.399912 0.000000
vt 0.394398 0.066707 0.000000
vt 0.387433 0.099476 0.000000
vt 0.377751 0.131547 0.000000
vt 0.365418 0.162695 0.000000
vt 0.350523 0.192701 0.000000
vt 0.333168 0.221357 0.000000
vt 0.313477 0.248459 0.000000
vt 0.291587 0.273819 0.000000
vt 0.267652 0.297258 0.000000
vt 0.241840 0.318612 0.000000
vt 0.214331 0.337731 0.000000
vt 0.185318 0.354481 0.000000
vt 0.155006 0.368745 0.000000
vt 0.123607 0.380423 0.000000
vt 0.091340 0.389432 0.000000
vt 0.058433 0.395709 0.000000
vt 0.025116 0.399211 0.000000
vt -0.008377 0.399912 0.000000
vt -0.041811 0.397809 0.000000
vt -0.074953 0.392915 0.000000
vt -0.107568 0.385265 0.000000
vt -0.139429 0.374913 0.000000
vt -0.170312 0.361931 0.000000
vt -0.200000 0.346410 0.000000
vt -0.228285 0.328460 0.000000
vt -0.254970 0.308205 0.000000
vt -0.279865 0.285789 0.000000
vt -0.302798 0.261368 0.000000
vt -0.323607 0.235114 0.000000
vt -0.342146 0.207211 0.000000
vt -0.358285 0.177854 0.000000
vt -0.371911 0.147250 0.000000
vt -0.382928 0.115613 0.000000
vt -0.391259 0.083165 0.000000
vt -0.396846 0.050133 0.000000
vn -0.000000 0.099649 -0.008368
vn -0.000000 0.100000 -0.000000
vn -0.000000 0.100000 -0.000000
vn -0.000000 0.099649 0.008368
vn -0.000000 0.099640 0.008481
vn -0.000000 0.098600 0.016677
vn -0.000000 0.098562 0.016900
vn -0.000000 0.096858 0.024869
vn -0.000000 0.096773 0.025198
vn -0.000000 0.094438 0.032887
vn -0.000000 0.094288 0.033314
vn -0.000000 0.091355 0.040674
vn -0.000000 0.091123 0.041190
vn -0.000000 0.087631 0.048175
vn -0.000000 0.087301 0.048769
vn -0.000000 0.083292 0.055339
vn -0.000000 0.082851 0.055997
vn -0.000000 0.078369 0.062115
vn -0.000000 0.077804 0.062822
vn -0.000000 0.072897 0.068455
vn -0.000000 0.072196 0.069194
vn -0.000000 0.066913 0.074314
vn -0.000000 0.066067 0.075067
vn -0.000000 0.060460 0.079653
vn -0.000000 0.059463 0.080400
vn 0.000000 0.053583 0.084433
vn 0.000000 0.052431 0.085153
vn 0.000000 0.046330 0.088620
vn 0.000000 0.045020 0.089293
vn 0.000000 0.038752 0.092186
vn 0.000000 0.037286 0.092789
vn 0.000000 0.030902 0.095106
vn 0.000000 0.029282 0.095617
vn 0.000000 0.022835 0.097358
vn 0.000000 0.021068 0.097756
vn 0.000000 0.014608 0.098927
vn 0.000000 0.012702 0.099190
vn 0.000000 0.006279 0.099803
vn 0.000000 0.004244 0.099910
vn 0.000000 -0.002094 0.099978
vn 0.000000 -0.004244 0.099910
vn 0.000000 -0.010453 0.099452
vn 0.000000 -0.012702 0.099190
vn 0.000000 -0.018738 0.098229
vn 0.000000 -0.021068 0.097756
vn 0.000000 -0.026892 0.096316
vn 0.000000 -0.029282 0.095617
vn 0.000000 -0.034857 0.093728
vn 0.000000 -0.037286 0.092789
vn 0.000000 -0.042578 0.090483
vn 0.000000 -0.045020 0.089293
vn 0.000000 -0.050000 0.086603
vn 0.000000 -0.052431 0.085153
vn 0.000000 -0.057071 0.082115
vn 0.000000 -0.059463 0.080400
vn 0.000000 -0.063742 0.077051
vn 0.000000 -0.066067 0.075067
vn 0.000000 -0.069966 0.071447
vn 0.000000 -0.072196 0.069194
vn 0.000000 -0.075700 0.065342
vn 0.000000 -0.077804 0.062822
vn 0.000000 -0.080902 0.058779
vn 0.000000 -0.082851 0.055997
vn 0.000000 -0.085536 0.051803
vn 0.000000 -0.087301 0.048769
vn 0.000000 -0.089571 0.044464
vn 0.000000 -0.091123 0.041190
vn 0.000000 -0.092978 0.036812
vn 0.000000 -0.094288 0.033314
vn 0.000000 -0.095732 0.028903
vn 0.000000 -0.096773 0.025198
vn 0.000000 -0.097815 0.020791
vn 0.000000 -0.098562 0.016900
vn 0.000000 -0.099211 0.012533
vn 0.000000 -0.099640 0.008481
vn 0.000000 -0.099912 0.004188
vn 0.000000 -0.100000 0.000000
vn 0.000000 -0.099912 -0.004188
vn 0.000000 -0.099640 -0.008481
vn 0.000000 -0.099211 -0.012533
vn 0.000000 -0.098562 -0.016900
vn 0.000000 -0.097815 -0.020791
vn 0.000000 -0.096773 -0.025198
vn 0.000000 -0.095732 -0.028903
vn 0.000000 -0.094288 -0.033314
vn 0.000000 -0.092978 -0.036812
vn 0.000000 -0.091123 -0.041190
vn 0.000000 -0.089571 -0.044464
vn 0.000000 -0.087301 -0.048769
vn 0.000000 -0.085536 -0.051803
vn 0.000000 -0.082851 -0.055997
vn 0.000000 -0.080902 -0.058779
vn 0.000000 -0.077804 -0.062822
vn 0.000000 -0.075700 -0.065342
vn 0.000000 -0.072196 -0.069194
vn 0.000000 -0.069966 -0.071447
vn 0.000000 -0.066067 -0.075067
vn 0.000000 -0.063742 -0.077051
vn 0.000000 -0.059463 -0.080400
vn 0.000000 -0.057071 -0.082115
vn -0.000000 -0.052431 -0.085153
vn -0.000000 -0.050000 -0.086603
vn -0.000000 -0.045020 -0.089293
vn -0.000000 -0.042578 -0.090483
vn -0.000000 -0.037286 -0.092789
vn -0.000000 -0.034857 -0.093728
vn -0.000000 -0.029282 -0.095617
vn -0.000000 -0.026892 -0.096316
vn -0.000000 -0.021068 -0.097756
vn -0.000000 -0.018738 -0.098229
vn -0.000000 -0.012702 -0.099190
vn -0.000000 -0.010453 -0.099452
vn -0.000000 -0.004244 -0.099910
vn -0.000000 -0.002094 -0.099978
vn -0.000000 0.004244 -0.099910
vn -0.000000 0.006279 -0.099803
vn -0.000000 0.012702 -0.099190
vn -0.000000 0.014608 -0.098927
vn -0.000000 0.021068 -0.097756
vn -0.000000 0.022835 -0.097358
vn -0.000000 0.029282 -0.095617
vn -0.000000 0.030902 -0.095106
vn -0.000000 0.037286 -0.092789
vn -0.000000 0.038752 -0.092186
vn -0.000000 0.045020 -0.089293
vn -0.000000 0.046330 -0.088620
vn -0.000000 0.052431 -0.085153
vn -0.000000 0.053583 -0.084433
vn -0.000000 0.059463 -0.080400
vn -0.000000 0.060460 -0.079653
vn -0.000000 0.066067 -0.075067
vn -0.000000 0.066913 -0.074314
vn -0.000000 0.072196 -0.069194
vn -0.000000 0.072897 -0.068455
vn -0.000000 0.077804 -0.062822
vn -0.000000 0.078369 -0.062115
vn -0.000000 0.082851 -0.055997
vn -0.000000 0.083292 -0.055339
vn -0.000000 0.087301 -0.048769
vn -0.000000 0.087631 -0.048175
vn -0.000000 0.091123 -0.041190
vn -0.000000 0.091355 -0.040674
vn -0.000000 0.094288 -0.033314
vn -0.000000 0.094438 -0.032887
vn -0.000000 0.096773 -0.025198
vn -0.000000 0.096858 -0.024869
vn -0.000000 0.098562 -0.016900
vn -0.000000 0.098600 -0.016677
vn -0.000000 0.099640 -0.008481
vn -0.000000 0.099649 0.008368
vn -0.000000 0.100000 0.000000
vn -0.000000 0.099649 -0.008368
vn -0.000000 0.098600 -0.016677
vn -0.000000 0.096858 -0.024869
vn -0.000000 0.094438 -0.032887
vn -0.000000 0.091355 -0.040674
vn -0.000000 0.087631 -0.048175
vn -0.000000 0.083292 -0.055339
vn -0.000000 0.078369 -0.062115
vn -0.000000 0.072897 -0.068455
vn -0.000000 0.066913 -0.074314
vn -0.000000 0.060460 -0.079653
vn -0.000000 0.053583 -0.084433
vn -0.000000 0.046330 -0.088620
vn -0.000000 0.038752 -0.092186
vn -0.000000 0.030902 -0.095106
vn -0.000000 0.022835 -0.097358
vn -0.000000 0.014608 -0.098927
vn -0.000000 0.006279 -0.099803
vn -0.000000 -0.002094 -0.099978
vn -0.000000 -0.010453 -0.099452
vn -0.000000 -0.018738 -0.098229
vn -0.000000 -0.026892 -0.096316
vn -0.000000 -0.034857 -0.093728
vn -0.000000 -0.042578 -0.090483
vn -0.000000 -0.050000 -0.086603
vn 0.000000 -0.057071 -0.082115
vn 0.000000 -0.063742 -0.077051
vn 0.000000 -0.069966 -0.071447
vn 0.000000 -0.075700 -0.065342
vn 0.000000 -0.080902 -0.058779
vn 0.000000 -0.085536 -0.051803
vn 0.000000 -0.089571 -0.044464
vn 0.000000 -0.092978 -0.036812
vn 0.000000 -0.095732 -0.028903
vn 0.000000 -0.097815 -0.020791
vn 0.000000 -0.099211 -0.012533
vn 0.000000 -0.099912 -0.004188
vn 0.000000 -0.099912 0.004188
vn 0.000000 -0.099211 0.012533
vn 0.000000 -0.097815 0.020791
vn 0.000000 -0.095732 0.028903
vn 0.000000 -0.092978 0.036812
vn 0.000000 -0.089571 0.044464
vn 0.000000 -0.085536 0.051803
vn 0.000000 -0.080902 0.058779
vn 0.000000 -0.075700 0.065342
vn 0.000000 -0.069966 0.071447
vn 0.000000 -0.063742 0.077051
vn 0.000000 -0.057071 0.082115
vn 0.000000 -0.050000 0.086603
vn 0.000000 -0.042578 0.090483
vn 0.000000 -0.034857 0.093728
vn 0.000000 -0.026892 0.096316
vn 0.000000 -0.018738 0.098229
vn 0.000000 -0.010453 0.099452
vn 0.000000 -0.002094 0.099978
vn 0.000000 0.006279 0.099803
vn 0.000000 0.014608 0.098927
vn 0.000000 0.022835 0.097358
vn 0.000000 0.030902 0.095106
vn 0.000000 0.038752 0.092186
vn 0.000000 0.046330 0.088620
vn 0.000000 0.053583 0.084433
vn -0.000000 0.060460 0.079653
vn -0.000000 0.066913 0.074314
vn -0.000000 0.072897 0.068455
vn -0.000000 0.078369 0.062115
vn -0.000000 0.083292 0.055339
vn -0.000000 0.087631 0.048175
vn -0.000000 0.091355 0.040674
vn -0.000000 0.094438 0.032887
vn -0.000000 0.096858 0.024869
vn -0.000000 0.098600 0.016677
vn -0.100000 -0.000000 0.000000
vn -0.100000 -0.000000 0.000000
vn -0.100000 -0.000000 0.000000
vn -0.100000 -0.000000 0.000000
vn -0.100000 -0.000000 0.000000
vn -0.100000 -0.000000 0.000000
vn -0.100000 -0.000000 0.000000
vn -0.100000 -0.000000 0.000000
vn -0.100000 -0.000000 0.000000
vn -0.100000 -0.000000 0.000000
vn -0.100000 -0.000000 0.000000
vn -0.100000 -0.000000 0.000000
vn -0.100000 -0.000000 0.000000
vn -0.100000 -0.000000 0.000000
vn -0.100000 -0.000000 0.000000
vn -0.100000 -0.000000 0.000000
vn -0.100000 -0.000000 0.000000
vn -0.100000 -0.000000 0.000000
vn -0.100000 -0.000000 0.000000
vn -0.100000 -0.000000 0.000000
vn -0.100000 -0.000000 0.000000
vn -0.100000 -0.000000 0.000000
vn -0.100000 -0.000000 0.000000
vn -0.100000 -0.000000 0.000000
vn -0.100000 -0.000000 0.000000
vn -0.100000 -0.000000 0.000000
vn -0.100000 -0.000000 0.000000
vn -0.100000 -0.000000 0.000000
vn -0.100000 -0.000000 0.000000
vn -0.100000 -0.000000 0.000000
vn -0.100000 -0.000000 0.000000
vn -0.100000 -0.000000 0.000000
vn -0.100000 -0.000000 0.000000
vn -0.100000 -0.000000 0.000000
vn -0.100000 -0.000000 0.000000
vn -0.100000 -0.000000 0.000000
vn -0.100000 -0.000000 0.000000
vn -0.100000 -0.000000 0.000000
vn -0.100000 -0.000000 0.000000
vn -0.100000 -0.000000 0.000000
vn -0.100000 -0.000000 0.000000
vn -0.100000 -0.000000 0.000000
vn -0.100000 -0.000000 0.000000
vn -0.100000 -0.000000 0.000000
vn -0.100000 -0.000000 0.000000
vn -0.100000 -0.000000 0.000000
vn -0.100000 -0.000000 0.000000
vn -0.100000 -0.000000 0.000000
vn -0.100000 -0.000000 0.000000
vn -0.100000 -0.000000 0.000000
vn -0.100000 -0.000000 0.000000
vn -0.100000 -0.000000 0.000000
vn -0.100000 -0.000000 0.000000
vn -0.100000 -0.000000 0.000000
vn -0.100000 -0.000000 0.000000
vn -0.100000 -0.000000 0.000000
vn -0.100000 -0.000000 0.000000
vn -0.100000 -0.000000 0.000000
vn -0.100000 -0.000000 0.000000
vn -0.100000 -0.000000 0.000000
vn -0.100000 -0.000000 0.000000
vn -0.100000 -0.000000 0.000000
vn -0.100000 -0.000000 0.000000
vn -0.100000 -0.000000 0.000000
vn -0.100000 -0.000000 0.000000
vn -0.100000 -0.000000 0.000000
vn -0.100000 -0.000000 0.000000
vn -0.100000 -0.000000 0.000000
vn -0.100000 -0.000000 0.000000
vn -0.100000 -0.000000 0.000000
vn -0.100000 -0.000000 0.000000
vn -0.100000 -0.000000 0.000000
vn -0.100000 -0.000000 0.000000
vn -0.100000 -0.000000 0.000000
vn -0.100000 -0.000000 0.000000
vn 0.100000 0.000000 -0.000000
vn 0.100000 0.000000 -0.000000
vn 0.100000 0.000000 -0.000000
vn 0.100000 0.000000 -0.000000
vn 0.100000 0.000000 -0.000000
vn 0.100000 0.000000 -0.000000
vn 0.100000 0.000000 -0.000000
vn 0.100000 0.000000 -0.000000
vn 0.100000 0.000000 -0.000000
vn 0.100000 0.000000 -0.000000
vn 0.100000 0.000000 -0.000000
vn 0.100000 0.000000 -0.000000
vn 0.100000 0.000000 -0.000000
vn 0.100000 0.000000 -0.000000
vn 0.100000 0.000000 -0.000000
vn 0.100000 0.000000 -0.000000
vn 0.100000 0.000000 -0.000000
vn 0.100000 0.000000 -0.000000
vn 0.100000 0.000000 -0.000000
vn 0.100000 0.000000 -0.000000
vn 0.100000 0.000000 -0.000000
vn 0.100000 0.000000 -0.000000
vn 0.100000 0.000000 -0.000000
vn 0.100000 0.000000 -0.000000
vn 0.100000 0.000000 -0.000000
vn 0.100000 0.000000 -0.000000
vn 0.100000 0.000000 -0.000000
vn 0.100000 0.000000 -0.000000
vn 0.100000 0.000000 -0.000000
vn 0.100000 0.000000 -0.000000
vn 0.100000 0.000000 -0.000000
vn 0.100000 0.000000 -0.000000
vn 0.100000 0.000000 -0.000000
vn 0.100000 0.000000 -0.000000
vn 0.100000 0.000000 -0.000000
vn 0.100000 0.000000 -0.000000
vn 0.100000 0.000000 -0.000000
vn 0.100000 0.000000 -0.000000
vn 0.100000 0.000000 -0.000000
vn 0.100000 0.000000 -0.000000
vn 0.100000 0.000000 -0.000000
vn 0.100000 0.000000 -0.000000
vn 0.100000 0.000000 -0.000000
vn 0.100000 0.000000 -0.000000
vn 0.100000 0.000000 -0.000000
vn 0.100000 0.000000 -0.000000
vn 0.100000 0.000000 -0.000000
vn 0.100000 0.000000 -0.000000
vn 0.100000 0.000000 -0.000000
vn 0.100000 0.000000 -0.000000
vn 0.100000 0.000000 -0.000000
vn 0.100000 0.000000 -0.000000
vn 0.100000 0.000000 -0.000000
vn 0.100000 0.000000 -0.000000
vn 0.100000 0.000000 -0.000000
vn 0.100000 0.000000 -0.000000
vn 0.100000 0.000000 -0.000000
vn 0.100000 0.000000 -0.000000
vn 0.100000 0.000000 -0.000000
vn 0.100000 0.000000 -0.000000
vn 0.100000 0.000000 -0.000000
vn 0.100000 0.000000 -0.000000
vn 0.100000 0.000000 -0.000000
vn 0.100000 0.000000 -0.000000
vn 0.100000 0.000000 -0.000000
vn 0.100000 0.000000 -0.000000
vn 0.100000 0.000000 -0.000000
vn 0.100000 0.000000 -0.000000
vn 0.100000 0.000000 -0.000000
vn 0.100000 0.000000 -0.000000
vn 0.100000 0.000000 -0.000000
vn 0.100000 0.000000 -0.000000
vn 0.100000 0.000000 -0.000000
vn 0.100000 0.000000 -0.000000
vn 0.100000 0.000000 -0.000000
usemtl Steel_-_Satin
f 75/1/1 1/2/2 151/3/3
f 151/4/3 1/5/2 2/6/4
f 151/4/3 2/6/4 152/7/5
f 152/7/5 2/6/4 3/8/6
f 152/7/5 3/8/6 153/9/7
f 153/9/7 3/8/6 4/10/8
f 153/9/7 4/10/8 154/11/9
f 154/11/9 4/10/8 5/12/10
f 154/11/9 5/12/10 155/13/11
f 155/13/11 5/12/10 6/14/12
f 155/13/11 6/14/12 156/15/13
f 156/15/13 6/14/12 7/16/14
f 156/15/13 7/16/14 157/17/15
f 157/17/15 7/16/14 8/18/16
f 157/17/15 8/18/16 158/19/17
f 158/19/17 8/18/16 9/20/18
f 158/19/17 9/20/18 159/21/19
f 159/21/19 9/20/18 10/22/20
f 159/21/19 10/22/20 160/23/21
f 160/23/21 10/22/20 11/24/22
f 160/23/21 11/24/22 161/25/23
f 161/25/23 11/24/22 12/26/24
f 161/25/23 12/26/24 162/27/25
f 162/27/25 12/26/24 13/28/26
f 162/27/25 13/28/26 163/29/27
f 163/29/27 13/28/26 14/30/28
f 163/29/27 14/30/28 164/31/29
f 164/31/29 14/30/28 15/32/30
f 164/31/29 15/32/30 165/33/31
f 165/33/31 15/32/30 16/34/32
f 165/33/31 16/34/32 166/35/33
f 166/35/33 16/34/32 17/36/34
f 166/35/33 17/36/34 167/37/35
f 167/37/35 17/36/34 18/38/36
f 167/37/35 18/38/36 168/39/37
f 168/39/37 18/38/36 19/40/38
f 168/39/37 19/40/38 169/41/39
f 169/41/39 19/40/38 20/42/40
f 169/41/39 20/42/40 170/43/41
f 170/43/41 20/42/40 21/44/42
f 170/43/41 21/44/42 171/45/43
f 171/45/43 21/44/42 22/46/44
f 171/45/43 22/46/44 172/47/45
f 172/47/45 22/46/44 23/48/46
f 172/47/45 23/48/46 173/49/47
f 173/49/47 23/48/46 24/50/48
f 173/49/47 24/50/48 174/51/49
f 174/51/49 24/50/48 25/52/50
f 174/51/49 25/52/50 175/53/51
f 175/53/51 25/52/50 26/54/52
f 175/53/51 26/54/52 176/55/53
f 176/55/53 26/54/52 27/56/54
f 176/55/53 27/56/54 177/57/55
f 177/57/55 27/56/54 28/58/56
f 177/57/55 28/58/56 178/59/57
f 178/59/57 28/58/56 29/60/58
f 178/59/57 29/60/58 179/61/59
f 179/61/59 29/60/58 30/62/60
f 179/61/59 30/62/60 180/63/61
f 180/63/61 30/62/60 31/64/62
f 180/63/61 31/64/62 181/65/63
f 181/65/63 31/64/62 32/66/64
f 181/65/63 32/66/64 182/67/65
f 182/67/65 32/66/64 33/68/66
f 182/67/65 33/68/66 183/69/67
f 183/69/67 33/68/66 34/70/68
f 183/69/67 34/70/68 184/71/69
f 184/71/69 34/70/68 35/72/70
f 184/71/69 35/72/70 185/73/71
f 185/73/71 35/72/70 36/74/72
f 185/73/71 36/74/72 186/75/73
f 186/75/73 36/74/72 37/76/74
f 186/75/73 37/76/74 187/77/75
f 187/77/75 37/76/74 38/78/76
f 187/77/75 38/78/76 188/79/77
f 188/79/77 38/78/76 39/80/78
f 188/79/77 39/80/78 189/81/79
f 189/81/79 39/80/78 40/82/80
f 189/81/79 40/82/80 190/83/81
f 190/83/81 40/82/80 41/84/82
f 190/83/81 41/84/82 191/85/83
f 191/85/83 41/84/82 42/86/84
f 191/85/83 42/86/84 192/87/85
f 192/87/85 42/86/84 43/88/86
f 192/87/85 43/88/86 193/89/87
f 193/89/87 43/88/86 44/90/88
f 193/89/87 44/90/88 194/91/89
f 194/91/89 44/90/88 45/92/90
f 194/91/89 45/92/90 195/93/91
f 195/93/91 45/92/90 46/94/92
f 195/93/91 46/94/92 196/95/93
f 196/95/93 46/94/92 47/96/94
f 196/95/93 47/96/94 197/97/95
f 197/97/95 47/96/94 48/98/96
f 197/97/95 48/98/96 198/99/97
f 198/99/97 48/98/96 49/100/98
f 198/99/97 49/100/98 199/101/99
f 199/101/99 49/100/98 50/102/100
f 199/101/99 50/102/100 200/103/101
f 200/103/101 50/102/100 51/104/102
f 200/103/101 51/104/102 201/105/103
f 201/105/103 51/104/102 52/106/104
f 201/105/103 52/106/104 202/107/105
f 202/107/105 52/106/104 53/108/106
f 202/107/105 53/108/106 203/109/107
f 203/109/107 53/108/106 54/110/108
f 203/109/107 54/110/108 204/111/109
f 204/111/109 54/110/108 55/112/110
f 204/111/109 55/112/110 205/113/111
f 205/113/111 55/112/110 56/114/112
f 205/113/111 56/114/112 206/115/113
f 206/115/113 56/114/112 57/116/114
f 206/115/113 57/116/114 207/117/115
f 207/117/115 57/116/114 58/118/116
f 207/117/115 58/118/116 208/119/117
f 208/119/117 58/118/116 59/120/118
f 208/119/117 59/120/118 209/121/119
f 209/121/119 59/120/118 60/122/120
f 209/121/119 60/122/120 210/123/121
f 210/123/121 60/122/120 61/124/122
f 210/123/121 61/124/122 211/125/123
f 211/125/123 61/124/122 62/126/124
f 211/125/123 62/126/124 212/127/125
f 212/127/125 62/126/124 63/128/126
f 212/127/125 63/128/126 213/129/127
f 213/129/127 63/128/126 64/130/128
f 213/129/127 64/130/128 214/131/129
f 214/131/129 64/130/128 65/132/130
f 214/131/129 65/132/130 215/133/131
f 215/133/131 65/132/130 66/134/132
f 215/133/131 66/134/132 216/135/133
f 216/135/133 66/134/132 67/136/134
f 216/135/133 67/136/134 217/137/135
f 217/137/135 67/136/134 68/138/136
f 217/137/135 68/138/136 218/139/137
f 218/139/137 68/138/136 69/140/138
f 218/139/137 69/140/138 219/141/139
f 219/141/139 69/140/138 70/142/140
f 219/141/139 70/142/140 220/143/141
f 220/143/141 70/142/140 71/144/142
f 220/143/141 71/144/142 221/145/143
f 221/145/143 71/144/142 72/146/144
f 221/145/143 72/146/144 222/147/145
f 222/147/145 72/146/144 73/148/146
f 222/147/145 73/148/146 223/149/147
f 223/149/147 73/148/146 74/150/148
f 223/149/147 74/150/148 224/151/149
f 224/151/149 74/150/148 75/1/1
f 224/151/149 75/1/1 151/3/3
f 150/152/150 76/153/151 151/4/3
f 151/3/3 76/154/151 77/155/152
f 151/3/3 77/155/152 224/151/149
f 224/151/149 77/155/152 78/156/153
f 224/151/149 78/156/153 223/149/147
f 223/149/147 78/156/153 79/157/154
f 223/149/147 79/157/154 222/147/145
f 222/147/145 79/157/154 80/158/155
f 222/147/145 80/158/155 221/145/143
f 221/145/143 80/158/155 81/159/156
f 221/145/143 81/159/156 220/143/141
f 220/143/141 81/159/156 82/160/157
f 220/143/141 82/160/157 219/141/139
f 219/141/139 82/160/157 83/161/158
f 219/141/139 83/161/158 218/139/137
f 218/139/137 83/161/158 84/162/159
f 218/139/137 84/162/159 217/137/135
f 217/137/135 84/162/159 85/163/160
f 217/137/135 85/163/160 216/135/133
f 216/135/133 85/163/160 86/164/161
f 216/135/133 86/164/161 215/133/131
f 215/133/131 86/164/161 87/165/162
f 215/133/131 87/165/162 214/131/129
f 214/131/129 87/165/162 88/166/163
f 214/131/129 88/166/163 213/129/127
f 213/129/127 88/166/163 89/167/164
f 213/129/127 89/167/164 212/127/125
f 212/127/125 89/167/164 90/168/165
f 212/127/125 90/168/165 211/125/123
f 211/125/123 90/168/165 91/169/166
f 211/125/123 91/169/166 210/123/121
f 210/123/121 91/169/166 92/170/167
f 210/123/121 92/170/167 209/121/119
f 209/121/119 92/170/167 93/171/168
f 209/121/119 93/171/168 208/119/117
f 208/119/117 93/171/168 94/172/169
f 208/119/117 94/172/169 207/117/115
f 207/117/115 94/172/169 95/173/170
f 207/117/115 95/173/170 206/115/113
f 206/115/113 95/173/170 96/174/171
f 206/115/113 96/174/171 205/113/111
f 205/113/111 96/174/171 97/175/172
f 205/113/111 97/175/172 204/111/109
f 204/111/109 97/175/172 98/176/173
f 204/111/109 98/176/173 203/109/107
f 203/109/107 98/176/173 99/177/174
f 203/109/107 99/177/174 202/107/105
f 202/107/105 99/177/174 100/178/175
f 202/107/105 100/178/175 201/105/103
f 201/105/103 100/178/175 101/179/176
f 201/105/103 101/179/176 200/103/101
f 200/103/101 101/179/176 102/180/177
f 200/103/101 102/180/177 199/101/99
f 199/101/99 102/180/177 103/181/178
f 199/101/99 103/181/178 198/99/97
f 198/99/97 103/181/178 104/182/179
f 198/99/97 104/182/179 197/97/95
f 197/97/95 104/182/179 105/183/180
f 197/97/95 105/183/180 196/95/93
f 196/95/93 105/183/180 106/184/181
f 196/95/93 106/184/181 195/93/91
f 195/93/91 106/184/181 107/185/182
f 195/93/91 107/185/182 194/91/89
f 194/91/89 107/185/182 108/186/183
f 194/91/89 108/186/183 193/89/87
f 193/89/87 108/186/183 109/187/184
f 193/89/87 109/187/184 192/87/85
f 192/87/85 109/187/184 110/188/185
f 192/87/85 110/188/185 191/85/83
f 191/85/83 110/188/185 111/189/186
f 191/85/83 111/189/186 190/83/81
f 190/83/81 111/189/186 112/190/187
f 190/83/81 112/190/187 189/81/79
f 189/81/79 112/190/187 113/191/188
f 189/81/79 113/191/188 188/79/77
f 188/79/77 113/191/188 114/192/189
f 188/79/77 114/192/189 187/77/75
f 187/77/75 114/192/189 115/193/190
f 187/77/75 115/193/190 186/75/73
f 186/75/73 115/193/190 116/194/191
f 186/75/73 116/194/191 185/73/71
f 185/73/71 116/194/191 117/195/192
f 185/73/71 117/195/192 184/71/69
f 184/71/69 117/195/192 118/196/193
f 184/71/69 118/196/193 183/69/67
f 183/69/67 118/196/193 119/197/194
f 183/69/67 119/197/194 182/67/65
f 182/67/65 119/197/194 120/198/195
f 182/67/65 120/198/195 181/65/63
f 181/65/63 120/198/195 121/199/196
f 181/65/63 121/199/196 180/63/61
f 180/63/61 121/199/196 122/200/197
f 180/63/61 122/200/197 179/61/59
f 179/61/59 122/200/197 123/201/198
f 179/61/59 123/201/198 178/59/57
f 178/59/57 123/201/198 124/202/199
f 178/59/57 124/202/199 177/57/55
f 177/57/55 124/202/199 125/203/200
f 177/57/55 125/203/200 176/55/53
f 176/55/53 125/203/200 126/204/201
f 176/55/53 126/204/201 175/53/51
f 175/53/51 126/204/201 127/205/202
f 175/53/51 127/205/202 174/51/49
f 174/51/49 127/205/202 128/206/203
f 174/51/49 128/206/203 173/49/47
f 173/49/47 128/206/203 129/207/204
f 173/49/47 129/207/204 172/47/45
f 172/47/45 129/207/204 130/208/205
f 172/47/45 130/208/205 171/45/43
f 171/45/43 130/208/205 131/209/206
f 171/45/43 131/209/206 170/43/41
f 170/43/41 131/209/206 132/210/207
f 170/43/41 132/210/207 169/41/39
f 169/41/39 132/210/207 133/211/208
f 169/41/39 133/211/208 168/39/37
f 168/39/37 133/211/208 134/212/209
f 168/39/37 134/212/209 167/37/35
f 167/37/35 134/212/209 135/213/210
f 167/37/35 135/213/210 166/35/33
f 166/35/33 135/213/210 136/214/211
f 166/35/33 136/214/211 165/33/31
f 165/33/31 136/214/211 137/215/212
f 165/33/31 137/215/212 164/31/29
f 164/31/29 137/215/212 138/216/213
f 164/31/29 138/216/213 163/29/27
f 163/29/27 138/216/213 139/217/214
f 163/29/27 139/217/214 162/27/25
f 162/27/25 139/217/214 140/218/215
f 162/27/25 140/218/215 161/25/23
f 161/25/23 140/218/215 141/219/216
f 161/25/23 141/219/216 160/23/21
f 160/23/21 141/219/216 142/220/217
f 160/23/21 142/220/217 159/21/19
f 159/21/19 142/220/217 143/221/218
f 159/21/19 143/221/218 158/19/17
f 158/19/17 143/221/218 144/222/219
f 158/19/17 144/222/219 157/17/15
f 157/17/15 144/222/219 145/223/220
f 157/17/15 145/223/220 156/15/13
f 156/15/13 145/223/220 146/224/221
f 156/15/13 146/224/221 155/13/11
f 155/13/11 146/224/221 147/225/222
f 155/13/11 147/225/222 154/11/9
f 154/11/9 147/225/222 148/226/223
f 154/11/9 148/226/223 153/9/7
f 153/9/7 148/226/223 149/227/224
f 153/9/7 149/227/224 152/7/5
f 152/7/5 149/227/224 150/152/150
f 152/7/5 150/152/150 151/4/3
f 75/228/225 39/229/226 1/230/227
f 1/230/227 39/229/226 38/231/228
f 1/230/227 38/231/228 2/232/229
f 2/232/229 38/231/228 37/233/230
f 2/232/229 37/233/230 36/234/231
f 39/229/226 75/228/225 40/235/232
f 40/235/232 75/228/225 74/236/233
f 40/235/232 74/236/233 41/237/234
f 41/237/234 74/236/233 73/238/235
f 41/237/234 73/238/235 42/239/236
f 42/239/236 73/238/235 72/240/237
f 42/239/236 72/240/237 43/241/238
f 43/241/238 72/240/237 71/242/239
f 43/241/238 71/242/239 44/243/240
f 44/243/240 71/242/239 70/244/241
f 44/243/240 70/244/241 45/245/242
f 45/245/242 70/244/241 69/246/243
f 45/245/242 69/246/243 46/247/244
f 46/247/244 69/246/243 68/248/245
f 46/247/244 68/248/245 47/249/246
f 47/249/246 68/248/245 67/250/247
f 47/249/246 67/250/247 48/251/248
f 48/251/248 67/250/247 66/252/249
f 48/251/248 66/252/249 49/253/250
f 49/253/250 66/252/249 65/254/251
f 49/253/250 65/254/251 50/255/252
f 50/255/252 65/254/251 64/256/253
f 50/255/252 64/256/253 51/257/254
f 51/257/254 64/256/253 63/258/255
f 51/257/254 63/258/255 52/259/256
f 52/259/256 63/258/255 62/260/257
f 52/259/256 62/260/257 53/261/258
f 53/261/258 62/260/257 61/262/259
f 53/261/258 61/262/259 54/263/260
f 54/263/260 61/262/259 60/264/261
f 54/263/260 60/264/261 55/265/262
f 55/265/262 60/264/261 59/266/263
f 55/265/262 59/266/263 56/267/264
f 56/267/264 59/266/263 58/268/265
f 56/267/264 58/268/265 57/269/266
f 36/234/231 35/270/267 2/232/229
f 2/232/229 35/270/267 34/271/268
f 2/232/229 34/271/268 33/272/269
f 33/272/269 32/273/270 2/232/229
f 2/232/229 32/273/270 31/274/271
f 2/232/229 31/274/271 30/275/272
f 30/275/272 29/276/273 2/232/229
f 2/232/229 29/276/273 28/277/274
f 2/232/229 28/277/274 27/278/275
f 27/278/275 26/279/276 2/232/229
f 2/232/229 26/279/276 25/280/277
f 2/232/229 25/280/277 24/281/278
f 24/281/278 23/282/279 2/232/229
f 2/232/229 23/282/279 22/283/280
f 2/232/229 22/283/280 21/284/281
f 21/284/281 20/285/282 2/232/229
f 2/232/229 20/285/282 19/286/283
f 2/232/229 19/286/283 18/287/284
f 18/287/284 17/288/285 2/232/229
f 2/232/229 17/288/285 16/289/286
f 2/232/229 16/289/286 15/290/287
f 15/290/287 14/291/288 2/232/229
f 2/232/229 14/291/288 13/292/289
f 2/232/229 13/292/289 12/293/290
f 12/293/290 11/294/291 2/232/229
f 2/232/229 11/294/291 10/295/292
f 2/232/229 10/295/292 9/296/293
f 9/296/293 8/297/294 2/232/229
f 2/232/229 8/297/294 7/298/295
f 2/232/229 7/298/295 6/299/296
f 6/299/296 5/300/297 2/232/229
f 2/232/229 5/300/297 4/301/298
f 2/232/229 4/301/298 3/302/299
f 150/303/300 114/304/301 76/305/302
f 76/305/302 114/304/301 113/306/303
f 76/305/302 113/306/303 77/307/304
f 77/307/304 113/306/303 112/308/305
f 77/307/304 112/308/305 78/309/306
f 78/309/306 112/308/305 111/310/307
f 78/309/306 111/310/307 79/311/308
f 79/311/308 111/310/307 110/312/309
f 79/311/308 110/312/309 80/313/310
f 80/313/310 110/312/309 109/314/311
f 80/313/310 109/314/311 81/315/312
f 81/315/312 109/314/311 108/316/313
f 81/315/312 108/316/313 82/317/314
f 82/317/314 108/316/313 107/318/315
f 82/317/314 107/318/315 83/319/316
f 83/319/316 107/318/315 106/320/317
f 83/319/316 106/320/317 84/321/318
f 84/321/318 106/320/317 105/322/319
f 84/321/318 105/322/319 85/323/320
f 85/323/320 105/322/319 104/324/321
f 85/323/320 104/324/321 86/325/322
f 86/325/322 104/324/321 103/326/323
f 86/325/322 103/326/323 87/327/324
f 87/327/324 103/326/323 102/328/325
f 87/327/324 102/328/325 88/329/326
f 88/329/326 102/328/325 101/330/327
f 88/329/326 101/330/327 89/331/328
f 89/331/328 101/330/327 100/332/329
f 89/331/328 100/332/329 90/333/330
f 90/333/330 100/332/329 99/334/331
f 90/333/330 99/334/331 91/335/332
f 91/335/332 99/334/331 98/336/333
f 91/335/332 98/336/333 92/337/334
f 92/337/334 98/336/333 97/338/335
f 92/337/334 97/338/335 93/339/336
f 93/339/336 97/338/335 96/340/337
f 93/339/336 96/340/337 94/341/338
f 94/341/338 96/340/337 95/342/339
f 149/343/340 148/344/341 150/303/300
f 150/303/300 148/344/341 147/345/342
f 150/303/300 147/345/342 146/346/343
f 146/346/343 145/347/344 150/303/300
f 150/303/300 145/347/344 144/348/345
f 150/303/300 144/348/345 143/349/346
f 143/349/346 142/350/347 150/303/300
f 150/303/300 142/350/347 141/351/348
f 150/303/300 141/351/348 140/352/349
f 140/352/349 139/353/350 150/303/300
f 150/303/300 139/353/350 138/354/351
f 150/303/300 138/354/351 137/355/352
f 137/355/352 136/356/353 150/303/300
f 150/303/300 136/356/353 135/357/354
f 150/303/300 135/357/354 134/358/355
f 134/358/355 133/359/356 150/303/300
f 150/303/300 133/359/356 132/360/357
f 150/303/300 132/360/357 131/361/358
f 131/361/358 130/362/359 150/303/300
f 150/303/300 130/362/359 129/363/360
f 150/303/300 129/363/360 128/364/361
f 128/364/361 127/365/362 150/303/300
f 150/303/300 127/365/362 126/366/363
f 150/303/300 126/366/363 125/367/364
f 125/367/364 124/368/365 150/303/300
f 150/303/300 124/368/365 123/369/366
f 150/303/300 123/369/366 122/370/367
f 122/370/367 121/371/368 150/303/300
f 150/303/300 121/371/368 120/372/369
f 150/303/300 120/372/369 119/373/370
f 119/373/370 118/374/371 150/303/300
f 150/303/300 118/374/371 117/375/372
f 150/303/300 117/375/372 116/376/373
f 116/376/373 115/377/374 150/303/300
f 150/303/300 115/377/374 114/304/301
# 224 vertices
# 377 texture params
# 374 normals
# 444 facets

# 1 groups
