# WaveFront *.obj file (generated by Autodesk ATF)

mtllib Driver_Board.mtl

g Driver_Board

v 60.000022 9.484001 2.000000
v 60.000022 9.484001 3.000000
v 60.000022 -10.984000 2.000000
v 60.000022 -10.984000 3.000000
v 59.991019 9.556000 2.000000
v 59.991019 9.556000 3.000000
v 59.991019 -11.056000 2.000000
v 59.991019 -11.056000 3.000000
v 59.974021 9.641998 2.000000
v 59.974021 9.641998 3.000000
v 59.974021 -11.142001 2.000000
v 59.974021 -11.142001 3.000000
v 59.950034 9.727001 2.000000
v 59.950034 9.727001 3.000000
v 59.950034 -11.227000 2.000000
v 59.950034 -11.227000 3.000000
v 59.919028 9.810001 2.000000
v 59.919028 9.810001 3.000000
v 59.919028 -11.310000 2.000000
v 59.919028 -11.310000 3.000000
v 59.882010 9.889999 2.000000
v 59.882010 9.889999 3.000000
v 59.882010 -11.390000 2.000000
v 59.882010 -11.390000 3.000000
v 59.839011 9.967998 2.000000
v 59.839011 9.967998 3.000000
v 59.839011 -11.468001 2.000000
v 59.839011 -11.468001 3.000000
v 59.790030 10.041000 2.000000
v 59.790030 10.041000 3.000000
v 59.790030 -11.541001 2.000000
v 59.790030 -11.541001 3.000000
v 59.735007 10.110000 2.000000
v 59.735007 10.110000 3.000000
v 59.735007 -11.610001 2.000000
v 59.735007 -11.610001 3.000000
v 59.675009 10.174999 2.000000
v 59.675009 10.174999 3.000000
v 59.675009 -11.675000 2.000000
v 59.675009 -11.675000 3.000000
v 59.611014 10.235000 2.000000
v 59.611014 10.235000 3.000000
v 59.611014 -11.735001 2.000000
v 59.611014 -11.735001 3.000000
v 59.541007 10.290001 2.000000
v 59.541007 10.290001 3.000000
v 59.541007 -11.790001 2.000000
v 59.541007 -11.790001 3.000000
v 59.468009 10.339001 2.000000
v 59.468009 10.339001 3.000000
v 59.468009 -11.839001 2.000000
v 59.468009 -11.839001 3.000000
v 59.391013 10.382000 2.000000
v 59.391013 10.382000 3.000000
v 59.391013 -11.882000 2.000000
v 59.391013 -11.882000 3.000000
v 59.310019 10.418999 2.000000
v 59.310019 10.418999 3.000000
v 59.310019 -11.919001 2.000000
v 59.310019 -11.919001 3.000000
v 59.227011 10.450001 2.000000
v 59.227011 10.450001 3.000000
v 59.227011 -11.950001 2.000000
v 59.227011 -11.950001 3.000000
v 59.142020 10.473999 2.000000
v 59.142020 10.473999 3.000000
v 59.142020 -11.974001 2.000000
v 59.142020 -11.974001 3.000000
v 59.056021 10.491001 2.000000
v 59.056021 10.491001 3.000000
v 59.056021 -11.991000 2.000000
v 59.056021 -11.991000 3.000000
v 59.000022 10.498001 3.000000
v 59.000022 7.716999 3.000000
v 59.000022 7.716999 5.200000
v 59.000022 -9.783001 3.000000
v 59.000022 -9.783001 5.200000
v 59.000022 -11.998000 3.000000
v 58.984030 10.500000 2.000000
v 58.984030 10.500000 3.000000
v 58.984030 -12.000001 2.000000
v 58.984030 -12.000001 3.000000
v 53.700034 10.500000 3.000000
v 53.700034 7.716999 3.000000
v 53.700034 7.716999 5.200000
v 53.700034 -9.783001 3.000000
v 53.700034 -9.783001 5.200000
v 53.700034 -12.000001 3.000000
v 52.252036 10.500000 2.000000
v 52.252036 8.001999 2.000000
v 52.252036 8.001999 3.000000
v 52.252036 -9.502001 2.000000
v 52.252036 -9.502001 3.000000
v 52.252036 -12.000001 2.000000
v 52.244010 8.174000 2.000000
v 52.244010 8.174000 3.000000
v 52.244010 7.831001 2.000000
v 52.244010 7.831001 3.000000
v 52.244010 -9.331002 2.000000
v 52.244010 -9.331002 3.000000
v 52.244010 -9.674000 2.000000
v 52.244010 -9.674000 3.000000
v 52.219016 8.344002 2.000000
v 52.219016 8.344002 3.000000
v 52.219016 7.660999 2.000000
v 52.219016 7.660999 3.000000
v 52.219016 -9.161000 2.000000
v 52.219016 -9.161000 3.000000
v 52.219016 -9.844000 2.000000
v 52.219016 -9.844000 3.000000
v 52.177024 8.509998 2.000000
v 52.177024 8.509998 3.000000
v 52.177024 7.493999 2.000000
v 52.177024 7.493999 3.000000
v 52.177024 -8.994000 2.000000
v 52.177024 -8.994000 3.000000
v 52.177024 -10.010001 2.000000
v 52.177024 -10.010001 3.000000
v 52.119010 8.672001 2.000000
v 52.119010 8.672001 3.000000
v 52.119010 7.332001 2.000000
v 52.119010 7.332001 3.000000
v 52.119010 -8.832001 2.000000
v 52.119010 -8.832001 3.000000
v 52.119010 -10.172001 2.000000
v 52.119010 -10.172001 3.000000
v 52.046012 8.826999 2.000000
v 52.046012 8.826999 3.000000
v 52.046012 7.176998 2.000000
v 52.046012 7.176998 3.000000
v 52.046012 -8.676999 2.000000
v 52.046012 -8.676999 3.000000
v 52.046012 -10.327000 2.000000
v 52.046012 -10.327000 3.000000
v 51.958029 8.974998 2.000000
v 51.958029 8.974998 3.000000
v 51.958029 7.029999 2.000000
v 51.958029 7.029999 3.000000
v 51.958029 -8.529999 2.000000
v 51.958029 -8.529999 3.000000
v 51.958029 -10.475001 2.000000
v 51.958029 -10.475001 3.000000
v 51.855033 9.112999 2.000000
v 51.855033 9.112999 3.000000
v 51.855033 6.891998 2.000000
v 51.855033 6.891998 3.000000
v 51.855033 -8.391999 2.000000
v 51.855033 -8.391999 3.000000
v 51.855033 -10.613001 2.000000
v 51.855033 -10.613001 3.000000
v 51.740012 9.240001 2.000000
v 51.740012 9.240001 3.000000
v 51.740012 6.764000 2.000000
v 51.740012 6.764000 3.000000
v 51.740012 -8.264000 2.000000
v 51.740012 -8.264000 3.000000
v 51.740012 -10.740000 2.000000
v 51.740012 -10.740000 3.000000
v 51.613028 9.354999 2.000000
v 51.613028 9.354999 3.000000
v 51.613028 6.648998 2.000000
v 51.613028 6.648998 3.000000
v 51.613028 -8.148999 2.000000
v 51.613028 -8.148999 3.000000
v 51.613028 -10.855000 2.000000
v 51.613028 -10.855000 3.000000
v 51.475028 9.458000 2.000000
v 51.475028 9.458000 3.000000
v 51.475028 6.547001 2.000000
v 51.475028 6.547001 3.000000
v 51.475028 -8.047001 2.000000
v 51.475028 -8.047001 3.000000
v 51.475028 -10.957001 2.000000
v 51.475028 -10.957001 3.000000
v 51.327017 9.546001 2.000000
v 51.327017 9.546001 3.000000
v 51.327017 6.458000 2.000000
v 51.327017 6.458000 3.000000
v 51.327017 -7.958001 2.000000
v 51.327017 -7.958001 3.000000
v 51.327017 -11.046000 2.000000
v 51.327017 -11.046000 3.000000
v 51.172019 9.618999 2.000000
v 51.172019 9.618999 3.000000
v 51.172019 6.384998 2.000000
v 51.172019 6.384998 3.000000
v 51.172019 -7.884999 2.000000
v 51.172019 -7.884999 3.000000
v 51.172019 -11.119000 2.000000
v 51.172019 -11.119000 3.000000
v 51.010031 9.676998 2.000000
v 51.010031 9.676998 3.000000
v 51.010031 6.326999 2.000000
v 51.010031 6.326999 3.000000
v 51.010031 -7.827000 2.000000
v 51.010031 -7.827000 3.000000
v 51.010031 -11.177001 2.000000
v 51.010031 -11.177001 3.000000
v 50.844016 9.719002 2.000000
v 50.844016 9.719002 3.000000
v 50.844016 6.285000 2.000000
v 50.844016 6.285000 3.000000
v 50.844016 -7.785000 2.000000
v 50.844016 -7.785000 3.000000
v 50.844016 -11.219000 2.000000
v 50.844016 -11.219000 3.000000
v 50.674033 9.743999 2.000000
v 50.674033 9.743999 3.000000
v 50.674033 6.259998 2.000000
v 50.674033 6.259998 3.000000
v 50.674033 -7.759999 2.000000
v 50.674033 -7.759999 3.000000
v 50.674033 -11.244000 2.000000
v 50.674033 -11.244000 3.000000
v 50.502036 9.752998 2.000000
v 50.502036 9.752998 3.000000
v 50.502036 6.251999 2.000000
v 50.502036 6.251999 3.000000
v 50.502036 -7.751999 2.000000
v 50.502036 -7.751999 3.000000
v 50.502036 -11.252001 2.000000
v 50.502036 -11.252001 3.000000
v 50.331015 9.743999 2.000000
v 50.331015 9.743999 3.000000
v 50.331015 6.259998 2.000000
v 50.331015 6.259998 3.000000
v 50.331015 -7.759999 2.000000
v 50.331015 -7.759999 3.000000
v 50.331015 -11.244000 2.000000
v 50.331015 -11.244000 3.000000
v 50.161032 9.719002 2.000000
v 50.161032 9.719002 3.000000
v 50.161032 6.285000 2.000000
v 50.161032 6.285000 3.000000
v 50.161032 -7.785000 2.000000
v 50.161032 -7.785000 3.000000
v 50.161032 -11.219000 2.000000
v 50.161032 -11.219000 3.000000
v 49.994010 9.676998 2.000000
v 49.994010 9.676998 3.000000
v 49.994010 6.326999 2.000000
v 49.994010 6.326999 3.000000
v 49.994010 -7.827000 2.000000
v 49.994010 -7.827000 3.000000
v 49.994010 -11.177001 2.000000
v 49.994010 -11.177001 3.000000
v 49.832022 9.618999 2.000000
v 49.832022 9.618999 3.000000
v 49.832022 6.384998 2.000000
v 49.832022 6.384998 3.000000
v 49.832022 -7.884999 2.000000
v 49.832022 -7.884999 3.000000
v 49.832022 -11.119000 2.000000
v 49.832022 -11.119000 3.000000
v 49.677024 9.546001 2.000000
v 49.677024 9.546001 3.000000
v 49.677024 6.458000 2.000000
v 49.677024 6.458000 3.000000
v 49.677024 -7.958001 2.000000
v 49.677024 -7.958001 3.000000
v 49.677024 -11.046000 2.000000
v 49.677024 -11.046000 3.000000
v 49.530020 9.458000 2.000000
v 49.530020 9.458000 3.000000
v 49.530020 6.547001 2.000000
v 49.530020 6.547001 3.000000
v 49.530020 -8.047001 2.000000
v 49.530020 -8.047001 3.000000
v 49.530020 -10.957001 2.000000
v 49.530020 -10.957001 3.000000
v 49.392020 9.354999 2.000000
v 49.392020 9.354999 3.000000
v 49.392020 6.648998 2.000000
v 49.392020 6.648998 3.000000
v 49.392020 -8.148999 2.000000
v 49.392020 -8.148999 3.000000
v 49.392020 -10.855000 2.000000
v 49.392020 -10.855000 3.000000
v 49.264029 9.240001 2.000000
v 49.264029 9.240001 3.000000
v 49.264029 6.764000 2.000000
v 49.264029 6.764000 3.000000
v 49.264029 -8.264000 2.000000
v 49.264029 -8.264000 3.000000
v 49.264029 -10.740000 2.000000
v 49.264029 -10.740000 3.000000
v 49.149008 9.112999 2.000000
v 49.149008 9.112999 3.000000
v 49.149008 6.891998 2.000000
v 49.149008 6.891998 3.000000
v 49.149008 -8.391999 2.000000
v 49.149008 -8.391999 3.000000
v 49.149008 -10.613001 2.000000
v 49.149008 -10.613001 3.000000
v 49.047019 8.974998 2.000000
v 49.047019 8.974998 3.000000
v 49.047019 7.029999 2.000000
v 49.047019 7.029999 3.000000
v 49.047019 -8.529999 2.000000
v 49.047019 -8.529999 3.000000
v 49.047019 -10.475001 2.000000
v 49.047019 -10.475001 3.000000
v 48.958029 8.826999 2.000000
v 48.958029 8.826999 3.000000
v 48.958029 7.176998 2.000000
v 48.958029 7.176998 3.000000
v 48.958029 -8.676999 2.000000
v 48.958029 -8.676999 3.000000
v 48.958029 -10.327000 2.000000
v 48.958029 -10.327000 3.000000
v 48.885031 8.672001 2.000000
v 48.885031 8.672001 3.000000
v 48.885031 7.332001 2.000000
v 48.885031 7.332001 3.000000
v 48.885031 -8.832001 2.000000
v 48.885031 -8.832001 3.000000
v 48.885031 -10.172001 2.000000
v 48.885031 -10.172001 3.000000
v 48.827017 8.509998 2.000000
v 48.827017 8.509998 3.000000
v 48.827017 7.493999 2.000000
v 48.827017 7.493999 3.000000
v 48.827017 -8.994000 2.000000
v 48.827017 -8.994000 3.000000
v 48.827017 -10.010001 2.000000
v 48.827017 -10.010001 3.000000
v 48.785025 8.344002 2.000000
v 48.785025 8.344002 3.000000
v 48.785025 7.660999 2.000000
v 48.785025 7.660999 3.000000
v 48.785025 -9.161000 2.000000
v 48.785025 -9.161000 3.000000
v 48.785025 -9.844000 2.000000
v 48.785025 -9.844000 3.000000
v 48.760031 8.174000 2.000000
v 48.760031 8.174000 3.000000
v 48.760031 7.831001 2.000000
v 48.760031 7.831001 3.000000
v 48.760031 -9.331002 2.000000
v 48.760031 -9.331002 3.000000
v 48.760031 -9.674000 2.000000
v 48.760031 -9.674000 3.000000
v 48.752036 9.752998 2.000000
v 48.752036 8.001999 2.000000
v 48.752036 8.001999 3.000000
v 48.752036 -7.751999 3.000000
v 48.752036 -9.502001 2.000000
v 48.752036 -9.502001 3.000000
v 48.752036 -12.000001 3.000000
v 31.748007 10.500000 2.000000
v 31.748007 10.500000 3.000000
v 31.748007 8.001999 2.000000
v 31.748007 8.001999 3.000000
v 31.748007 -9.502001 2.000000
v 31.748007 -9.502001 3.000000
v 31.748007 -12.000001 2.000000
v 31.740012 8.174000 2.000000
v 31.740012 8.174000 3.000000
v 31.740012 7.831001 2.000000
v 31.740012 7.831001 3.000000
v 31.740012 -9.331002 2.000000
v 31.740012 -9.331002 3.000000
v 31.740012 -9.674000 2.000000
v 31.740012 -9.674000 3.000000
v 31.715018 8.344002 2.000000
v 31.715018 8.344002 3.000000
v 31.715018 7.660999 2.000000
v 31.715018 7.660999 3.000000
v 31.715018 -9.161000 2.000000
v 31.715018 -9.161000 3.000000
v 31.715018 -9.844000 2.000000
v 31.715018 -9.844000 3.000000
v 31.673025 8.509998 2.000000
v 31.673025 8.509998 3.000000
v 31.673025 7.493999 2.000000
v 31.673025 7.493999 3.000000
v 31.673025 -8.994000 2.000000
v 31.673025 -8.994000 3.000000
v 31.673025 -10.010001 2.000000
v 31.673025 -10.010001 3.000000
v 31.615012 8.672001 2.000000
v 31.615012 8.672001 3.000000
v 31.615012 7.332001 2.000000
v 31.615012 7.332001 3.000000
v 31.615012 -8.832001 2.000000
v 31.615012 -8.832001 3.000000
v 31.615012 -10.172001 2.000000
v 31.615012 -10.172001 3.000000
v 31.542013 8.826999 2.000000
v 31.542013 8.826999 3.000000
v 31.542013 7.176998 2.000000
v 31.542013 7.176998 3.000000
v 31.542013 -8.676999 2.000000
v 31.542013 -8.676999 3.000000
v 31.542013 -10.327000 2.000000
v 31.542013 -10.327000 3.000000
v 31.453024 8.974998 2.000000
v 31.453024 8.974998 3.000000
v 31.453024 7.029999 2.000000
v 31.453024 7.029999 3.000000
v 31.453024 -8.529999 2.000000
v 31.453024 -8.529999 3.000000
v 31.453024 -10.475001 2.000000
v 31.453024 -10.475001 3.000000
v 31.351034 9.112999 2.000000
v 31.351034 9.112999 3.000000
v 31.351034 6.891998 2.000000
v 31.351034 6.891998 3.000000
v 31.351034 -8.391999 2.000000
v 31.351034 -8.391999 3.000000
v 31.351034 -10.613001 2.000000
v 31.351034 -10.613001 3.000000
v 31.236014 9.240001 2.000000
v 31.236014 9.240001 3.000000
v 31.236014 6.764000 2.000000
v 31.236014 6.764000 3.000000
v 31.236014 -8.264000 2.000000
v 31.236014 -8.264000 3.000000
v 31.236014 -10.740000 2.000000
v 31.236014 -10.740000 3.000000
v 31.108023 9.354999 2.000000
v 31.108023 9.354999 3.000000
v 31.108023 6.648998 2.000000
v 31.108023 6.648998 3.000000
v 31.108023 -8.148999 2.000000
v 31.108023 -8.148999 3.000000
v 31.108023 -10.855000 2.000000
v 31.108023 -10.855000 3.000000
v 30.970022 9.458000 2.000000
v 30.970022 9.458000 3.000000
v 30.970022 6.547001 2.000000
v 30.970022 6.547001 3.000000
v 30.970022 -8.047001 2.000000
v 30.970022 -8.047001 3.000000
v 30.970022 -10.957001 2.000000
v 30.970022 -10.957001 3.000000
v 30.823019 9.546001 2.000000
v 30.823019 9.546001 3.000000
v 30.823019 6.458000 2.000000
v 30.823019 6.458000 3.000000
v 30.823019 -7.958001 2.000000
v 30.823019 -7.958001 3.000000
v 30.823019 -11.046000 2.000000
v 30.823019 -11.046000 3.000000
v 30.668021 9.618999 2.000000
v 30.668021 9.618999 3.000000
v 30.668021 6.384998 2.000000
v 30.668021 6.384998 3.000000
v 30.668021 -7.884999 2.000000
v 30.668021 -7.884999 3.000000
v 30.668021 -11.119000 2.000000
v 30.668021 -11.119000 3.000000
v 30.506033 9.676998 2.000000
v 30.506033 9.676998 3.000000
v 30.506033 6.326999 2.000000
v 30.506033 6.326999 3.000000
v 30.506033 -7.827000 2.000000
v 30.506033 -7.827000 3.000000
v 30.506033 -11.177001 2.000000
v 30.506033 -11.177001 3.000000
v 30.339011 9.719002 2.000000
v 30.339011 9.719002 3.000000
v 30.339011 6.285000 2.000000
v 30.339011 6.285000 3.000000
v 30.339011 -7.785000 2.000000
v 30.339011 -7.785000 3.000000
v 30.339011 -11.219000 2.000000
v 30.339011 -11.219000 3.000000
v 30.169028 9.743999 2.000000
v 30.169028 9.743999 3.000000
v 30.169028 6.259998 2.000000
v 30.169028 6.259998 3.000000
v 30.169028 -7.759999 2.000000
v 30.169028 -7.759999 3.000000
v 30.169028 -11.244000 2.000000
v 30.169028 -11.244000 3.000000
v 29.998007 9.752998 2.000000
v 29.998007 9.752998 3.000000
v 29.998007 6.251999 2.000000
v 29.998007 6.251999 3.000000
v 29.998007 -7.751999 2.000000
v 29.998007 -7.751999 3.000000
v 29.998007 -11.252001 2.000000
v 29.998007 -11.252001 3.000000
v 29.826010 9.743999 2.000000
v 29.826010 9.743999 3.000000
v 29.826010 6.259998 2.000000
v 29.826010 6.259998 3.000000
v 29.826010 -7.759999 2.000000
v 29.826010 -7.759999 3.000000
v 29.826010 -11.244000 2.000000
v 29.826010 -11.244000 3.000000
v 29.656027 9.719002 2.000000
v 29.656027 9.719002 3.000000
v 29.656027 6.285000 2.000000
v 29.656027 6.285000 3.000000
v 29.656027 -7.785000 2.000000
v 29.656027 -7.785000 3.000000
v 29.656027 -11.219000 2.000000
v 29.656027 -11.219000 3.000000
v 29.490011 9.676998 2.000000
v 29.490011 9.676998 3.000000
v 29.490011 6.326999 2.000000
v 29.490011 6.326999 3.000000
v 29.490011 -7.827000 2.000000
v 29.490011 -7.827000 3.000000
v 29.490011 -11.177001 2.000000
v 29.490011 -11.177001 3.000000
v 29.328024 9.618999 2.000000
v 29.328024 9.618999 3.000000
v 29.328024 6.384998 2.000000
v 29.328024 6.384998 3.000000
v 29.328024 -7.884999 2.000000
v 29.328024 -7.884999 3.000000
v 29.328024 -11.119000 2.000000
v 29.328024 -11.119000 3.000000
v 29.173025 9.546001 2.000000
v 29.173025 9.546001 3.000000
v 29.173025 6.458000 2.000000
v 29.173025 6.458000 3.000000
v 29.173025 -7.958001 2.000000
v 29.173025 -7.958001 3.000000
v 29.173025 -11.046000 2.000000
v 29.173025 -11.046000 3.000000
v 29.025015 9.458000 2.000000
v 29.025015 9.458000 3.000000
v 29.025015 6.547001 2.000000
v 29.025015 6.547001 3.000000
v 29.025015 -8.047001 2.000000
v 29.025015 -8.047001 3.000000
v 29.025015 -10.957001 2.000000
v 29.025015 -10.957001 3.000000
v 28.887015 9.354999 2.000000
v 28.887015 9.354999 3.000000
v 28.887015 6.648998 2.000000
v 28.887015 6.648998 3.000000
v 28.887015 -8.148999 2.000000
v 28.887015 -8.148999 3.000000
v 28.887015 -10.855000 2.000000
v 28.887015 -10.855000 3.000000
v 28.760031 9.240001 2.000000
v 28.760031 9.240001 3.000000
v 28.760031 6.764000 2.000000
v 28.760031 6.764000 3.000000
v 28.760031 -8.264000 2.000000
v 28.760031 -8.264000 3.000000
v 28.760031 -10.740000 2.000000
v 28.760031 -10.740000 3.000000
v 28.645010 9.112999 2.000000
v 28.645010 9.112999 3.000000
v 28.645010 6.891998 2.000000
v 28.645010 6.891998 3.000000
v 28.645010 -8.391999 2.000000
v 28.645010 -8.391999 3.000000
v 28.645010 -10.613001 2.000000
v 28.645010 -10.613001 3.000000
v 28.542013 8.974998 2.000000
v 28.542013 8.974998 3.000000
v 28.542013 7.029999 2.000000
v 28.542013 7.029999 3.000000
v 28.542013 -8.529999 2.000000
v 28.542013 -8.529999 3.000000
v 28.542013 -10.475001 2.000000
v 28.542013 -10.475001 3.000000
v 28.454031 8.826999 2.000000
v 28.454031 8.826999 3.000000
v 28.454031 7.176998 2.000000
v 28.454031 7.176998 3.000000
v 28.454031 -8.676999 2.000000
v 28.454031 -8.676999 3.000000
v 28.454031 -10.327000 2.000000
v 28.454031 -10.327000 3.000000
v 28.381033 8.672001 2.000000
v 28.381033 8.672001 3.000000
v 28.381033 7.332001 2.000000
v 28.381033 7.332001 3.000000
v 28.381033 -8.832001 2.000000
v 28.381033 -8.832001 3.000000
v 28.381033 -10.172001 2.000000
v 28.381033 -10.172001 3.000000
v 28.323019 8.509998 2.000000
v 28.323019 8.509998 3.000000
v 28.323019 7.493999 2.000000
v 28.323019 7.493999 3.000000
v 28.323019 -8.994000 2.000000
v 28.323019 -8.994000 3.000000
v 28.323019 -10.010001 2.000000
v 28.323019 -10.010001 3.000000
v 28.281027 8.344002 2.000000
v 28.281027 8.344002 3.000000
v 28.281027 7.660999 2.000000
v 28.281027 7.660999 3.000000
v 28.281027 -9.161000 2.000000
v 28.281027 -9.161000 3.000000
v 28.281027 -9.844000 2.000000
v 28.281027 -9.844000 3.000000
v 28.256033 8.174000 2.000000
v 28.256033 8.174000 3.000000
v 28.256033 7.831001 2.000000
v 28.256033 7.831001 3.000000
v 28.256033 -9.331002 2.000000
v 28.256033 -9.331002 3.000000
v 28.256033 -9.674000 2.000000
v 28.256033 -9.674000 3.000000
v 28.247031 8.001999 2.000000
v 28.247031 8.001999 3.000000
v 28.247031 -9.502001 2.000000
v 28.247031 -9.502001 3.000000
v 27.500021 10.500000 3.000000
v 27.500021 7.716999 3.000000
v 27.500021 7.716999 9.000000
v 27.500021 -9.783001 3.000000
v 27.500021 -9.783001 9.000000
v 27.500021 -12.000001 3.000000
v 20.016012 10.500000 2.000000
v 20.016012 10.500000 3.000000
v 20.016012 -12.000001 2.000000
v 20.016012 -12.000001 3.000000
v 20.000021 10.498001 3.000000
v 20.000021 7.716999 3.000000
v 20.000021 7.716999 9.000000
v 20.000021 -9.783001 3.000000
v 20.000021 -9.783001 9.000000
v 20.000021 -11.998000 3.000000
v 19.944021 10.491001 2.000000
v 19.944021 10.491001 3.000000
v 19.944021 -11.991000 2.000000
v 19.944021 -11.991000 3.000000
v 19.858023 10.473999 2.000000
v 19.858023 10.473999 3.000000
v 19.858023 -11.974001 2.000000
v 19.858023 -11.974001 3.000000
v 19.773031 10.450001 2.000000
v 19.773031 10.450001 3.000000
v 19.773031 -11.950001 2.000000
v 19.773031 -11.950001 3.000000
v 19.690024 10.418999 2.000000
v 19.690024 10.418999 3.000000
v 19.690024 -11.919001 2.000000
v 19.690024 -11.919001 3.000000
v 19.609030 10.382000 2.000000
v 19.609030 10.382000 3.000000
v 19.609030 -11.882000 2.000000
v 19.609030 -11.882000 3.000000
v 19.532034 10.339001 2.000000
v 19.532034 10.339001 3.000000
v 19.532034 -11.839001 2.000000
v 19.532034 -11.839001 3.000000
v 19.459036 10.290001 2.000000
v 19.459036 10.290001 3.000000
v 19.459036 -11.790001 2.000000
v 19.459036 -11.790001 3.000000
v 19.389029 10.235000 2.000000
v 19.389029 10.235000 3.000000
v 19.389029 -11.735001 2.000000
v 19.389029 -11.735001 3.000000
v 19.325033 10.174999 2.000000
v 19.325033 10.174999 3.000000
v 19.325033 -11.675000 2.000000
v 19.325033 -11.675000 3.000000
v 19.265036 10.110000 2.000000
v 19.265036 10.110000 3.000000
v 19.265036 -11.610001 2.000000
v 19.265036 -11.610001 3.000000
v 19.210013 10.041000 2.000000
v 19.210013 10.041000 3.000000
v 19.210013 -11.541001 2.000000
v 19.210013 -11.541001 3.000000
v 19.161032 9.967998 2.000000
v 19.161032 9.967998 3.000000
v 19.161032 -11.468001 2.000000
v 19.161032 -11.468001 3.000000
v 19.118033 9.889999 2.000000
v 19.118033 9.889999 3.000000
v 19.118033 -11.390000 2.000000
v 19.118033 -11.390000 3.000000
v 19.081015 9.810001 2.000000
v 19.081015 9.810001 3.000000
v 19.081015 -11.310000 2.000000
v 19.081015 -11.310000 3.000000
v 19.050009 9.727001 2.000000
v 19.050009 9.727001 3.000000
v 19.050009 -11.227000 2.000000
v 19.050009 -11.227000 3.000000
v 19.026022 9.641998 2.000000
v 19.026022 9.641998 3.000000
v 19.026022 -11.142001 2.000000
v 19.026022 -11.142001 3.000000
v 19.009024 9.556000 2.000000
v 19.009024 9.556000 3.000000
v 19.009024 -11.056000 2.000000
v 19.009024 -11.056000 3.000000
v 19.000021 9.484001 2.000000
v 19.000021 9.484001 3.000000
v 19.000021 -10.984000 2.000000
v 19.000021 -10.984000 3.000000
usemtl Paint_-_Metallic_(Blue)
f 482 474 480
f 304 303 295
f 304 295 296
f 312 311 303
f 312 303 304
f 346 282 384
f 464 472 474
f 696 694 695
f 693 695 694
f 554 546 544
f 632 622 636
f 628 622 632
f 640 636 622
f 311 312 319
f 320 319 312
f 546 538 544
f 328 327 319
f 328 319 320
f 336 335 327
f 336 327 328
f 344 335 336
f 344 336 345
f 346 424 418
f 217 209 211
f 211 219 217
f 338 337 344
f 338 344 345
f 410 346 418
f 402 346 410
f 330 329 337
f 330 337 338
f 322 321 329
f 322 329 330
f 314 313 321
f 314 321 322
f 394 346 402
f 306 305 313
f 306 313 314
f 509 615 501
f 493 501 615
f 298 297 305
f 298 305 306
f 290 289 297
f 290 297 298
f 525 615 517
f 509 517 615
f 282 281 289
f 282 289 290
f 680 622 684
f 688 684 622
f 676 622 680
f 692 688 622
f 672 622 676
f 668 622 672
f 664 622 668
f 660 622 664
f 656 622 660
f 652 622 656
f 648 644 622
f 644 640 622
f 624 622 628
f 652 648 622
f 274 273 281
f 274 281 282
f 541 615 533
f 696 692 622
f 549 615 541
f 265 273 274
f 557 615 549
f 525 533 615
f 694 696 620
f 565 615 557
f 210 209 217
f 210 217 218
f 619 626 620
f 202 201 209
f 202 209 210
f 690 694 626
f 694 620 626
f 622 620 696
f 573 615 565
f 194 193 201
f 194 201 202
f 678 682 626
f 686 690 626
f 186 185 193
f 186 193 194
f 178 177 185
f 178 185 186
f 170 169 177
f 170 177 178
f 589 615 581
f 581 615 573
f 161 169 170
f 682 686 626
f 674 646 670
f 638 642 674
f 642 646 674
f 666 670 646
f 650 658 646
f 654 658 650
f 662 646 658
f 666 646 662
f 265 274 266
f 634 674 630
f 626 630 674
f 638 674 634
f 674 678 626
f 265 266 258
f 265 258 257
f 639 615 635
f 631 635 615
f 267 265 259
f 257 258 250
f 257 250 249
f 259 257 251
f 251 241 243
f 235 243 233
f 249 250 242
f 249 242 241
f 227 235 233
f 241 242 234
f 241 234 233
f 226 225 233
f 226 233 234
f 655 659 615
f 659 663 615
f 663 667 615
f 667 671 615
f 671 675 615
f 675 695 615
f 625 615 695
f 679 691 675
f 683 687 679
f 691 679 687
f 695 675 691
f 218 217 225
f 218 225 226
f 651 655 615
f 86 87 84
f 85 84 87
f 695 693 625
f 647 651 615
f 4 3 2
f 2 3 1
f 396 349 388
f 347 341 363
f 404 349 396
f 60 76 64
f 68 64 76
f 56 76 60
f 52 76 56
f 48 76 52
f 72 68 76
f 44 76 48
f 40 76 44
f 40 36 76
f 78 72 76
f 412 349 404
f 428 349 420
f 275 265 267
f 283 407 275
f 24 76 28
f 32 28 76
f 36 32 76
f 20 76 24
f 16 76 20
f 12 76 16
f 8 76 12
f 4 76 8
f 2 74 4
f 117 81 125
f 125 81 133
f 76 4 74
f 74 38 42
f 74 42 46
f 74 46 50
f 74 50 54
f 74 54 58
f 74 58 62
f 74 62 66
f 70 74 66
f 73 74 70
f 133 81 141
f 157 149 94
f 141 81 149
f 22 74 18
f 26 74 22
f 30 74 26
f 34 74 30
f 38 74 34
f 14 18 74
f 2 6 74
f 6 10 74
f 14 74 10
f 94 173 165
f 165 157 94
f 424 432 426
f 173 94 181
f 426 418 424
f 55 79 51
f 59 79 55
f 47 51 79
f 63 79 59
f 67 79 63
f 71 79 67
f 189 181 94
f 496 504 506
f 197 189 94
f 205 197 94
f 506 498 496
f 205 94 213
f 15 19 11
f 7 11 19
f 19 23 7
f 3 7 23
f 27 79 23
f 31 79 27
f 39 79 35
f 43 79 39
f 35 79 31
f 488 496 498
f 448 456 458
f 458 450 448
f 57 3 61
f 65 61 3
f 53 3 57
f 49 3 53
f 45 3 49
f 41 3 45
f 37 3 41
f 69 65 3
f 23 79 3
f 237 356 245
f 608 612 604
f 583 615 591
f 575 615 583
f 599 591 615
f 3 37 33
f 3 33 29
f 3 29 25
f 3 25 21
f 3 21 17
f 3 17 13
f 3 13 9
f 3 9 5
f 3 5 1
f 443 444 436
f 443 436 435
f 685 625 689
f 689 625 693
f 78 71 72
f 451 452 444
f 451 444 443
f 71 67 68
f 71 68 72
f 67 63 64
f 67 64 68
f 625 685 681
f 459 460 452
f 459 452 451
f 63 59 60
f 63 60 64
f 467 468 460
f 467 460 459
f 59 55 56
f 59 56 60
f 55 51 52
f 55 52 56
f 475 476 468
f 475 468 467
f 681 677 673
f 681 673 669
f 681 669 665
f 681 665 661
f 681 661 657
f 681 657 653
f 681 653 649
f 681 649 645
f 681 645 641
f 681 641 637
f 51 47 48
f 51 48 52
f 476 475 483
f 476 483 484
f 47 43 44
f 47 44 48
f 681 637 633
f 681 633 629
f 681 629 625
f 491 492 484
f 491 484 483
f 43 39 40
f 43 40 44
f 499 500 492
f 499 492 491
f 643 639 640
f 643 640 644
f 39 36 40
f 639 635 636
f 639 636 640
f 39 35 36
f 507 508 500
f 507 500 499
f 635 631 632
f 635 632 636
f 35 31 32
f 35 32 36
f 631 627 628
f 631 628 632
f 515 516 508
f 515 508 507
f 31 27 28
f 31 28 32
f 627 624 628
f 27 23 24
f 27 24 28
f 523 524 516
f 523 516 515
f 696 695 691
f 696 691 692
f 23 19 20
f 23 20 24
f 531 532 524
f 531 524 523
f 692 691 687
f 692 687 688
f 19 15 16
f 19 16 20
f 688 687 683
f 688 683 684
f 15 11 12
f 15 12 16
f 11 7 8
f 11 8 12
f 684 683 679
f 684 679 680
f 532 531 540
f 539 540 531
f 7 3 4
f 7 4 8
f 680 679 675
f 680 675 676
f 547 548 540
f 547 540 539
f 676 675 671
f 676 671 672
f 41 42 38
f 41 38 37
f 548 547 555
f 548 555 556
f 672 671 667
f 672 667 668
f 45 46 42
f 45 42 41
f 556 555 563
f 556 563 564
f 668 667 663
f 668 663 664
f 49 50 46
f 49 46 45
f 564 563 571
f 564 571 572
f 664 663 659
f 664 659 660
f 53 54 50
f 53 50 49
f 572 571 579
f 572 579 580
f 659 655 656
f 659 656 660
f 57 58 54
f 57 54 53
f 580 579 587
f 580 587 588
f 655 651 652
f 655 652 656
f 61 62 58
f 61 58 57
f 588 587 595
f 588 595 596
f 65 66 62
f 65 62 61
f 69 70 66
f 69 66 65
f 596 595 604
f 69 73 70
f 164 171 163
f 1 5 6
f 1 6 2
f 164 163 155
f 164 155 156
f 5 9 10
f 5 10 6
f 9 13 14
f 9 14 10
f 147 148 156
f 147 156 155
f 570 562 552
f 13 17 18
f 13 18 14
f 139 140 148
f 139 148 147
f 562 554 552
f 17 21 22
f 17 22 18
f 520 528 522
f 131 132 140
f 131 140 139
f 21 25 26
f 21 26 22
f 512 520 514
f 578 570 552
f 123 124 132
f 123 132 131
f 25 29 30
f 25 30 26
f 504 512 514
f 29 33 34
f 29 34 30
f 115 116 124
f 115 124 123
f 38 34 37
f 33 37 34
f 514 506 504
f 522 514 520
f 107 108 116
f 107 116 115
f 77 76 74
f 77 74 75
f 99 100 108
f 99 108 107
f 87 77 75
f 87 75 85
f 444 349 436
f 100 99 92
f 100 92 93
f 81 79 71
f 43 47 79
f 436 349 428
f 101 102 93
f 101 93 92
f 69 3 79
f 460 349 452
f 80 79 83
f 109 102 101
f 468 349 460
f 444 452 349
f 88 81 82
f 219 211 212
f 219 212 220
f 81 71 78
f 81 78 82
f 614 349 476
f 69 79 73
f 80 73 79
f 484 614 476
f 212 211 203
f 212 203 204
f 73 80 74
f 84 74 80
f 83 84 80
f 204 203 195
f 204 195 196
f 500 614 492
f 86 88 82
f 78 76 82
f 86 82 76
f 196 195 187
f 196 187 188
f 75 74 84
f 75 84 85
f 508 614 500
f 87 86 76
f 87 76 77
f 188 187 179
f 188 179 180
f 610 611 612
f 613 612 611
f 623 613 611
f 623 611 621
f 524 614 516
f 180 179 171
f 180 171 172
f 532 614 524
f 508 516 614
f 643 615 639
f 172 171 164
f 627 631 615
f 276 267 268
f 540 614 532
f 548 614 540
f 268 267 259
f 268 259 260
f 260 259 251
f 260 251 252
f 556 614 548
f 564 614 556
f 252 251 243
f 252 243 244
f 643 647 615
f 617 627 615
f 244 243 235
f 244 235 236
f 597 605 615
f 236 235 227
f 236 227 228
f 588 612 580
f 228 227 219
f 228 219 220
f 596 612 588
f 572 614 564
f 616 609 615
f 342 341 347
f 342 347 348
f 492 614 484
f 468 476 349
f 348 347 339
f 348 339 340
f 340 339 331
f 340 331 332
f 618 617 614
f 624 627 617
f 624 617 618
f 332 331 323
f 332 323 324
f 472 480 474
f 490 482 480
f 480 488 490
f 456 464 466
f 440 448 450
f 450 442 440
f 432 440 442
f 442 434 432
f 434 426 432
f 386 346 394
f 378 346 386
f 370 346 378
f 615 625 619
f 615 619 616
f 324 323 315
f 324 315 316
f 316 315 307
f 316 307 308
f 609 616 620
f 619 620 616
f 308 307 299
f 308 299 300
f 300 299 291
f 300 291 292
f 572 580 614
f 604 612 596
f 602 612 608
f 594 586 612
f 586 578 612
f 594 612 602
f 530 522 528
f 538 530 528
f 528 536 538
f 536 544 538
f 568 612 560
f 576 610 568
f 606 598 610
f 614 580 612
f 651 647 648
f 651 648 652
f 567 615 575
f 559 615 567
f 542 609 550
f 620 566 609
f 513 521 519
f 519 511 513
f 505 513 511
f 156 84 164
f 624 618 622
f 148 84 156
f 612 622 618
f 140 84 148
f 618 614 612
f 611 610 620
f 611 620 621
f 132 84 140
f 612 613 622
f 623 622 613
f 375 367 329
f 319 327 359
f 311 319 359
f 343 352 357
f 357 365 343
f 413 350 405
f 108 86 116
f 124 86 132
f 431 283 439
f 100 93 86
f 93 102 86
f 350 89 343
f 343 405 350
f 215 223 89
f 101 92 81
f 99 107 81
f 90 95 79
f 109 101 81
f 94 149 81
f 261 356 269
f 150 158 88
f 277 269 356
f 335 344 359
f 303 311 359
f 182 88 174
f 166 174 88
f 285 277 356
f 511 503 505
f 190 88 182
f 495 487 489
f 198 88 190
f 465 473 471
f 471 463 465
f 309 301 356
f 206 88 198
f 455 447 449
f 457 465 463
f 88 206 214
f 222 349 214
f 447 439 449
f 325 356 333
f 341 333 356
f 317 309 356
f 301 293 356
f 293 285 356
f 261 253 356
f 253 245 356
f 229 94 237
f 221 94 229
f 213 94 221
f 356 237 94
f 463 455 457
f 307 315 385
f 339 347 354
f 371 363 341
f 379 371 341
f 387 379 341
f 395 387 341
f 403 395 341
f 356 403 341
f 325 317 356
f 84 180 172
f 644 648 643
f 647 643 648
f 127 79 119
f 164 84 172
f 135 79 127
f 685 689 690
f 685 690 686
f 689 693 694
f 689 694 690
f 89 79 143
f 236 228 210
f 151 89 143
f 276 268 346
f 685 686 681
f 682 681 686
f 204 196 194
f 638 637 641
f 638 641 642
f 151 159 89
f 167 175 89
f 183 191 89
f 135 143 79
f 196 188 186
f 642 641 645
f 642 645 646
f 188 180 178
f 615 609 350
f 351 350 609
f 646 645 649
f 646 649 650
f 350 351 89
f 83 89 351
f 650 649 653
f 650 653 654
f 83 79 89
f 614 356 349
f 348 355 342
f 654 653 657
f 654 657 658
f 617 356 614
f 658 657 661
f 658 661 662
f 349 356 94
f 662 661 665
f 662 665 666
f 81 88 94
f 349 94 88
f 666 665 669
f 666 669 670
f 316 362 324
f 324 362 332
f 670 669 673
f 670 673 674
f 381 382 390
f 381 390 389
f 674 673 677
f 674 677 678
f 389 390 398
f 389 398 397
f 678 677 681
f 678 681 682
f 292 346 300
f 355 340 362
f 397 398 406
f 397 406 405
f 619 625 626
f 284 346 292
f 626 625 629
f 626 629 630
f 414 413 405
f 414 405 406
f 630 629 633
f 630 633 634
f 276 346 284
f 634 633 637
f 634 637 638
f 422 421 413
f 422 413 414
f 186 194 196
f 346 362 300
f 621 620 622
f 621 622 623
f 118 126 86
f 110 118 86
f 246 349 238
f 283 291 409
f 88 86 126
f 291 299 401
f 401 409 291
f 166 88 158
f 150 88 142
f 299 307 393
f 385 393 307
f 377 385 315
f 286 349 278
f 294 349 286
f 278 349 270
f 431 424 423
f 262 270 349
f 423 424 416
f 423 416 415
f 315 323 377
f 310 318 364
f 415 416 408
f 415 408 407
f 407 408 400
f 407 400 399
f 323 331 369
f 369 377 323
f 354 361 339
f 361 369 331
f 399 400 392
f 399 392 391
f 331 339 361
f 391 392 384
f 391 384 383
f 363 354 347
f 238 349 230
f 230 349 222
f 262 349 254
f 246 254 349
f 294 302 349
f 318 326 364
f 326 334 364
f 88 214 349
f 292 291 283
f 292 283 284
f 383 384 376
f 383 376 375
f 375 376 368
f 375 368 367
f 284 283 275
f 284 275 276
f 367 368 360
f 367 360 359
f 267 276 275
f 334 342 364
f 355 364 342
f 340 355 348
f 332 362 340
f 302 310 364
f 362 316 308
f 308 300 362
f 370 362 346
f 349 302 364
f 349 364 372
f 349 372 380
f 380 388 349
f 420 349 412
f 359 360 353
f 359 353 352
f 109 110 102
f 358 357 352
f 358 352 353
f 117 118 110
f 117 110 109
f 125 126 118
f 125 118 117
f 366 365 357
f 366 357 358
f 133 134 126
f 133 126 125
f 374 373 365
f 374 365 366
f 141 142 134
f 141 134 133
f 152 144 83
f 136 83 144
f 373 374 381
f 382 381 374
f 149 150 142
f 149 142 141
f 421 422 429
f 430 429 422
f 83 168 160
f 160 152 83
f 419 411 356
f 411 403 356
f 438 437 429
f 438 429 430
f 435 427 356
f 427 419 356
f 446 445 437
f 446 437 438
f 454 453 445
f 454 445 446
f 527 519 521
f 462 461 453
f 462 453 454
f 212 204 202
f 497 505 503
f 470 469 461
f 470 461 462
f 194 202 204
f 477 469 470
f 477 470 478
f 138 84 130
f 481 489 479
f 486 485 477
f 486 477 478
f 122 84 114
f 494 493 485
f 494 485 486
f 502 501 493
f 502 493 494
f 106 84 98
f 510 509 501
f 510 501 502
f 518 517 509
f 518 509 510
f 529 615 521
f 615 559 521
f 526 525 517
f 526 517 518
f 551 543 521
f 526 533 525
f 543 535 521
f 534 533 526
f 542 541 533
f 542 533 534
f 168 83 176
f 550 549 541
f 550 541 542
f 184 176 83
f 558 557 549
f 558 549 550
f 184 83 192
f 566 565 557
f 566 557 558
f 200 192 83
f 574 573 565
f 574 565 566
f 208 200 83
f 593 617 585
f 615 569 577
f 431 432 424
f 569 615 561
f 553 615 545
f 561 615 553
f 573 574 581
f 582 581 574
f 248 240 351
f 232 351 240
f 256 248 351
f 559 551 521
f 537 615 529
f 545 615 537
f 590 589 581
f 590 581 582
f 264 256 351
f 598 597 589
f 598 589 590
f 605 597 598
f 605 598 606
f 351 272 264
f 435 356 443
f 600 599 605
f 600 605 606
f 451 443 356
f 272 351 280
f 592 591 599
f 592 599 600
f 451 356 459
f 467 459 356
f 584 583 591
f 584 591 592
f 288 351 296
f 467 356 475
f 576 575 583
f 576 583 584
f 304 351 312
f 568 567 575
f 568 575 576
f 560 559 567
f 560 567 568
f 552 551 559
f 552 559 560
f 515 617 523
f 544 543 551
f 544 551 552
f 328 320 351
f 617 531 523
f 536 535 543
f 536 543 544
f 336 328 351
f 528 535 536
f 398 390 336
f 531 617 539
f 472 471 479
f 472 479 480
f 547 539 617
f 464 463 471
f 464 471 472
f 414 406 351
f 406 398 351
f 456 455 463
f 456 463 464
f 448 447 455
f 448 455 456
f 462 454 351
f 446 438 351
f 351 430 422
f 422 414 351
f 366 358 336
f 440 439 447
f 440 447 448
f 338 345 353
f 432 431 439
f 432 439 440
f 376 384 314
f 353 360 338
f 535 528 527
f 424 346 416
f 527 528 520
f 527 520 519
f 408 416 346
f 519 520 512
f 519 512 511
f 400 408 346
f 511 512 504
f 511 504 503
f 384 392 346
f 392 400 346
f 503 504 496
f 503 496 495
f 252 244 210
f 488 487 495
f 488 495 496
f 282 290 384
f 290 298 384
f 480 479 487
f 480 487 488
f 426 433 425
f 106 114 84
f 122 130 84
f 170 178 180
f 202 210 212
f 244 236 210
f 157 158 150
f 157 150 149
f 165 166 158
f 165 158 157
f 322 330 368
f 314 322 376
f 563 555 617
f 166 165 174
f 173 174 165
f 617 603 595
f 587 617 595
f 579 617 587
f 181 182 174
f 181 174 173
f 430 351 438
f 571 563 617
f 547 617 555
f 515 507 617
f 499 617 507
f 491 356 499
f 483 356 491
f 475 356 483
f 617 499 356
f 189 190 182
f 189 182 181
f 446 351 454
f 197 198 190
f 197 190 189
f 462 351 470
f 478 470 351
f 205 206 198
f 205 198 197
f 393 401 299
f 417 283 409
f 449 457 455
f 479 471 473
f 473 481 479
f 503 495 497
f 535 527 521
f 489 497 495
f 487 479 489
f 441 449 439
f 433 441 439
f 425 433 439
f 417 425 439
f 283 417 439
f 213 214 206
f 213 206 205
f 351 609 478
f 486 478 609
f 214 213 221
f 214 221 222
f 229 230 222
f 229 222 221
f 494 609 502
f 494 486 609
f 510 609 518
f 502 609 510
f 237 238 230
f 237 230 229
f 518 609 526
f 245 246 238
f 245 238 237
f 253 254 246
f 253 246 245
f 261 262 254
f 261 254 253
f 534 609 542
f 526 609 534
f 269 270 262
f 269 262 261
f 558 609 566
f 550 609 558
f 620 582 574
f 574 566 620
f 270 269 278
f 277 278 269
f 466 458 456
f 285 286 278
f 285 278 277
f 286 285 293
f 286 293 294
f 294 293 301
f 294 301 302
f 302 301 309
f 302 309 310
f 582 620 590
f 310 309 317
f 310 317 318
f 620 610 590
f 598 590 610
f 318 317 325
f 318 325 326
f 326 325 333
f 326 333 334
f 600 606 610
f 334 333 341
f 334 341 342
f 584 592 610
f 592 600 610
f 119 112 120
f 584 610 576
f 610 612 568
f 119 120 128
f 119 128 127
f 127 128 136
f 127 136 135
f 135 136 144
f 135 144 143
f 560 612 552
f 152 151 143
f 152 143 144
f 612 578 552
f 544 552 554
f 426 425 417
f 426 417 418
f 498 490 488
f 409 410 418
f 409 418 417
f 474 466 464
f 401 402 410
f 401 410 409
f 393 394 402
f 393 402 401
f 385 386 394
f 385 394 393
f 137 129 81
f 377 378 386
f 377 386 385
f 369 370 378
f 369 378 377
f 79 81 121
f 361 362 370
f 361 370 369
f 129 121 81
f 105 79 113
f 362 361 354
f 362 354 355
f 363 364 355
f 363 355 354
f 79 105 97
f 90 79 97
f 103 79 95
f 605 599 615
f 577 585 617
f 617 593 601
f 617 601 607
f 607 603 617
f 579 571 617
f 617 615 577
f 364 363 372
f 371 372 363
f 111 79 103
f 379 380 372
f 379 372 371
f 119 79 111
f 469 477 350
f 485 493 350
f 615 350 493
f 597 615 589
f 387 388 380
f 387 380 379
f 395 396 388
f 395 388 387
f 209 201 203
f 167 89 159
f 403 404 396
f 403 396 395
f 201 193 195
f 411 412 404
f 411 404 403
f 160 159 151
f 160 151 152
f 183 89 175
f 193 185 187
f 187 195 193
f 199 89 191
f 161 170 162
f 139 81 131
f 89 199 207
f 89 207 215
f 123 81 115
f 161 162 154
f 161 154 153
f 343 89 231
f 223 231 89
f 153 154 146
f 153 146 145
f 92 99 81
f 239 343 231
f 145 146 138
f 145 138 137
f 137 138 130
f 137 130 129
f 255 343 247
f 274 282 346
f 129 130 122
f 129 122 121
f 239 247 343
f 121 122 114
f 121 114 113
f 263 343 255
f 266 274 346
f 258 266 346
f 113 114 106
f 113 106 105
f 250 258 346
f 279 343 271
f 105 106 98
f 105 98 97
f 287 343 279
f 263 271 343
f 234 346 226
f 295 343 287
f 97 98 91
f 97 91 90
f 344 337 359
f 96 95 90
f 96 90 91
f 337 329 367
f 104 103 95
f 104 95 96
f 260 252 210
f 268 260 210
f 218 346 210
f 346 268 210
f 218 226 346
f 228 220 210
f 220 212 210
f 178 186 188
f 162 170 180
f 154 162 180
f 146 154 180
f 138 146 180
f 84 138 180
f 116 86 124
f 367 359 337
f 329 321 375
f 112 111 103
f 112 103 104
f 112 119 111
f 168 167 159
f 168 159 160
f 346 234 242
f 242 250 346
f 374 366 336
f 330 338 360
f 382 374 336
f 390 382 336
f 351 398 336
f 320 312 351
f 345 336 358
f 360 368 330
f 358 353 345
f 368 376 322
f 306 314 384
f 298 306 384
f 176 175 167
f 176 167 168
f 304 296 351
f 288 280 351
f 232 224 351
f 83 351 224
f 83 224 216
f 216 208 83
f 419 420 412
f 419 412 411
f 383 375 321
f 321 313 383
f 427 428 420
f 427 420 419
f 391 383 313
f 435 428 427
f 313 305 391
f 128 83 136
f 83 128 120
f 83 120 112
f 104 84 112
f 96 84 104
f 91 84 96
f 98 84 91
f 108 100 86
f 102 110 86
f 134 88 126
f 142 88 134
f 84 132 86
f 83 112 84
f 184 183 175
f 184 175 176
f 399 391 305
f 305 297 399
f 192 191 183
f 192 183 184
f 397 343 389
f 200 199 191
f 200 191 192
f 297 289 407
f 289 281 407
f 208 207 199
f 208 199 200
f 381 389 343
f 281 275 407
f 407 399 297
f 429 350 421
f 405 343 397
f 215 207 208
f 215 208 216
f 273 275 281
f 224 223 215
f 224 215 216
f 421 350 413
f 445 350 437
f 429 437 350
f 445 453 350
f 265 275 273
f 232 231 223
f 232 223 224
f 240 239 231
f 240 231 232
f 423 283 431
f 407 283 415
f 248 247 239
f 248 239 240
f 327 335 359
f 256 255 247
f 256 247 248
f 139 147 169
f 423 415 283
f 264 263 255
f 264 255 256
f 295 303 359
f 272 271 263
f 272 263 264
f 161 81 169
f 153 145 81
f 145 137 81
f 113 79 121
f 161 153 81
f 280 279 271
f 280 271 272
f 343 295 359
f 352 343 359
f 288 287 279
f 288 279 280
f 257 259 265
f 249 251 257
f 296 295 287
f 296 287 288
f 373 343 365
f 481 473 474
f 481 474 482
f 381 343 373
f 241 251 249
f 474 473 465
f 474 465 466
f 466 465 457
f 466 457 458
f 458 457 449
f 458 449 450
f 450 449 441
f 450 441 442
f 107 115 81
f 123 131 81
f 185 177 187
f 203 211 209
f 195 203 201
f 219 227 217
f 233 225 227
f 233 243 241
f 179 187 177
f 177 169 179
f 171 179 169
f 163 171 169
f 155 163 169
f 147 155 169
f 81 139 169
f 461 350 453
f 442 441 433
f 442 433 434
f 434 433 426
f 469 350 461
f 477 485 350
f 530 537 529
f 530 529 521
f 530 521 522
f 522 521 513
f 522 513 514
f 514 513 505
f 514 505 506
f 109 81 117
f 506 505 497
f 506 497 498
f 498 497 489
f 498 489 490
f 490 489 481
f 490 481 482
f 225 217 227
f 604 595 603
f 604 603 607
f 604 607 608
f 608 607 601
f 608 601 602
f 602 601 593
f 602 593 594
f 594 593 585
f 594 585 586
f 586 585 577
f 586 577 578
f 578 577 569
f 578 569 570
f 570 569 561
f 570 561 562
f 562 561 553
f 562 553 554
f 554 553 545
f 554 545 546
f 546 545 537
f 546 537 538
f 538 537 530
f 428 435 436
# 696 vertices
# 0 texture params
# 0 normals
# 1404 facets

# 1 groups
